<?xml version="1.0" encoding="utf-8"?>
<!-- Generator: Adobe Illustrator 22.1.0, SVG Export Plug-In . SVG Version: 6.00 Build 0)  -->
<svg version="1.1" id="Layer_1" xmlns="http://www.w3.org/2000/svg" xmlns:xlink="http://www.w3.org/1999/xlink" x="0px" y="0px"
	 viewBox="0 0 52 52" style="enable-background:new 0 0 52 52;" xml:space="preserve">
<style type="text/css">
	.st0{fill:#ECE9FF;}
	.st1{fill:#5C4D94;}
	.st2{fill:#E9F8FE;}
</style>
<g id="XMLID_6694_">
	<g>
		<path id="XMLID_6891_" class="st0" d="M46.9,42.3c0,2.2-1.7,3.9-3.9,3.9H10.8c-2.2,0-3.9-1.7-3.9-3.9V10.1c0-2.2,1.7-3.9,3.9-3.9
			H43c2.2,0,3.9,1.7,3.9,3.9C46.9,10.1,46.9,42.3,46.9,42.3z"/>
		<g id="XMLID_6803_">
			<path class="st1" d="M42.2,26c0,0-7.3-10.8-16.2-10.8S9.8,26,9.8,26S17,36.8,26,36.8S42.2,26,42.2,26z"/>
		</g>
		<circle id="XMLID_6698_" class="st2" cx="26" cy="26" r="6.8"/>
		
			<rect id="XMLID_6695_" x="-6.2" y="24.4" transform="matrix(0.7071 -0.7071 0.7071 0.7071 -10.7698 26.0001)" class="st1" width="64.3" height="3.2"/>
	</g>
</g>
</svg>
