<svg 
 xmlns="http://www.w3.org/2000/svg"
 xmlns:xlink="http://www.w3.org/1999/xlink"
 viewBox="0 0 29 18">
<path fill-rule="evenodd"  fill="rgb(255, 255, 255)"
 d="M28.907,9.321 C25.894,14.656 20.407,18.000 14.500,18.000 C8.593,18.000 3.112,14.656 0.093,9.321 C-0.031,9.130 -0.031,8.870 0.093,8.678 C3.106,3.344 8.593,-0.000 14.500,-0.000 C20.407,-0.000 25.888,3.344 28.907,8.678 C29.031,8.870 29.031,9.130 28.907,9.321 ZM14.500,1.286 C9.143,1.286 4.154,4.240 1.384,9.000 C4.154,13.760 9.143,16.714 14.500,16.714 C19.856,16.714 24.846,13.760 27.616,9.000 C24.846,4.240 19.856,1.286 14.500,1.286 ZM14.500,14.786 C11.422,14.786 8.960,12.214 8.960,9.000 C8.960,5.786 11.422,3.214 14.500,3.214 C17.578,3.214 20.040,5.786 20.040,9.000 C20.040,12.214 17.578,14.786 14.500,14.786 ZM14.500,4.500 C12.103,4.500 10.191,6.497 10.191,9.000 C10.191,11.503 12.097,13.500 14.500,13.500 C16.903,13.500 18.809,11.503 18.809,9.000 C18.809,6.497 16.897,4.500 14.500,4.500 ZM14.500,11.571 C13.144,11.571 12.038,10.415 12.038,9.000 L13.269,9.000 C13.269,9.705 13.825,10.286 14.500,10.286 C15.175,10.286 15.731,9.705 15.731,9.000 C15.731,8.295 15.175,7.714 14.500,7.714 L14.500,6.429 C15.855,6.429 16.962,7.584 16.962,9.000 C16.962,10.415 15.855,11.571 14.500,11.571 Z"/>
</svg>