<?xml version="1.0" encoding="utf-8"?>
<!-- Generator: Adobe Illustrator 22.1.0, SVG Export Plug-In . SVG Version: 6.00 Build 0)  -->
<svg version="1.1" id="Layer_1" xmlns="http://www.w3.org/2000/svg" xmlns:xlink="http://www.w3.org/1999/xlink" x="0px" y="0px"
	 viewBox="0 0 12.9 10" style="enable-background:new 0 0 12.9 10;" xml:space="preserve">
<style type="text/css">
	.st0{fill:#FFFFFF;}
	.st1{fill:#5C4D94;}
</style>
<g id="Symbol_11_1" transform="translate(-1230)">
	<path id="XMLID_5_" class="st0" d="M1236.5,0c-3,0-5.7,2.1-6.5,5c0.9,3.6,4.6,5.7,8.1,4.8c2.3-0.6,4.2-2.4,4.8-4.8
		C1242.2,2.1,1239.5,0,1236.5,0z M1236.5,8.3c-1.8,0-3.3-1.5-3.3-3.3s1.5-3.3,3.3-3.3c0.4,0,0.9,0.1,1.3,0.3
		c-0.5,0.4-0.6,1.2-0.2,1.8s1.2,0.6,1.8,0.2c0.1-0.1,0.1-0.1,0.2-0.2c0.7,1.7-0.1,3.7-1.8,4.4C1237.3,8.2,1236.9,8.3,1236.5,8.3z"/>
	<path id="XMLID_2_" class="st1" d="M1238.5,4.2c-0.7,0-1.3-0.6-1.2-1.3c0-0.4,0.2-0.7,0.5-1c-1.7-0.7-3.7,0.1-4.4,1.8
		c-0.7,1.7,0.1,3.7,1.8,4.4c1.7,0.7,3.7-0.1,4.4-1.8c0.2-0.4,0.3-0.9,0.3-1.3c0-0.5-0.1-0.9-0.3-1.3C1239.3,4,1238.9,4.2,1238.5,4.2
		z M1236.5,5.8c-0.5,0-0.8-0.4-0.8-0.8s0.4-0.8,0.8-0.8c0.5,0,0.8,0.4,0.8,0.8l0,0C1237.3,5.5,1236.9,5.8,1236.5,5.8L1236.5,5.8z"/>
	<circle id="XMLID_1_" class="st0" cx="1236.5" cy="5" r="0.8"/>
</g>
</svg>
