<svg 
 xmlns="http://www.w3.org/2000/svg"
 xmlns:xlink="http://www.w3.org/1999/xlink"
 viewBox="0 0 22 22">
<path fill-rule="evenodd"  fill="rgb(255, 255, 255)"
 d="M16.231,11.664 L16.231,1.772 L1.739,1.772 L1.739,20.228 L8.405,20.228 C8.884,20.228 9.275,20.627 9.275,21.114 C9.275,21.601 8.884,22.000 8.405,22.000 L0.869,22.000 C0.391,22.000 -0.000,21.601 -0.000,21.114 L-0.000,0.886 C-0.000,0.399 0.391,-0.000 0.869,-0.000 L17.100,-0.000 C17.579,-0.000 17.970,0.399 17.970,0.886 L17.970,11.664 C17.970,12.152 17.579,12.550 17.100,12.550 C16.622,12.550 16.231,12.152 16.231,11.664 ZM20.709,13.820 C20.347,13.495 19.796,13.525 19.477,13.894 L14.709,19.298 L12.318,16.950 C11.970,16.611 11.420,16.625 11.086,16.980 C10.753,17.334 10.767,17.895 11.115,18.235 L14.159,21.217 C14.318,21.380 14.535,21.468 14.767,21.468 C14.782,21.468 14.782,21.468 14.796,21.468 C15.028,21.454 15.260,21.350 15.405,21.173 L20.767,15.090 C21.100,14.706 21.071,14.145 20.709,13.820 ZM13.043,5.168 L5.217,5.168 C4.739,5.168 4.348,5.566 4.348,6.054 C4.348,6.541 4.739,6.940 5.217,6.940 L13.043,6.940 C13.521,6.940 13.912,6.541 13.912,6.054 C13.912,5.566 13.521,5.168 13.043,5.168 ZM13.912,10.926 C13.912,10.439 13.521,10.040 13.043,10.040 L5.217,10.040 C4.739,10.040 4.348,10.439 4.348,10.926 C4.348,11.413 4.739,11.812 5.217,11.812 L13.043,11.812 C13.521,11.812 13.912,11.413 13.912,10.926 ZM5.217,14.765 C4.739,14.765 4.348,15.164 4.348,15.651 C4.348,16.138 4.739,16.537 5.217,16.537 L7.536,16.537 C8.014,16.537 8.405,16.138 8.405,15.651 C8.405,15.164 8.014,14.765 7.536,14.765 L5.217,14.765 Z"/>
</svg>