<?xml version="1.0" encoding="utf-8"?>
<!-- Generator: Adobe Illustrator 22.1.0, SVG Export Plug-In . SVG Version: 6.00 Build 0)  -->
<svg version="1.1" id="Layer_1" xmlns="http://www.w3.org/2000/svg" xmlns:xlink="http://www.w3.org/1999/xlink" x="0px" y="0px"
	 viewBox="0 0 40 36" style="enable-background:new 0 0 40 36;" xml:space="preserve">
<style type="text/css">
	.st0{fill:#5C4D94;}
	.st1{fill:#68D7FF;}
</style>
<path class="st0" d="M19.6-0.2c-0.9,0-1.5,0.5-2,1c-0.5,0.5-1,1.1-1.3,1.8c-0.3,0.7-0.4,1.3-0.5,1.8h-0.6c-0.7,0-1.2,0.6-1.2,1.2
	v0.3h-3.1l0.2,0c0,0-1.7-0.3-2.9,1c-1.1,1.1-1,2.4-1,2.6v22.3c0,0.1,0,0.5,0,1c0.1,0.6,0.1,1.3,0.8,2c0.7,0.7,1.4,0.7,1.9,0.8
	c0.5,0,0.8,0,0.9,0h17.4c0.1,0,0.5,0,1,0c0.6-0.1,1.4-0.2,2-0.8c0.7-0.7,0.8-1.4,0.8-2c0-0.5,0-0.8,0-0.9v-6.9h-2.3v7l0,0.1
	c0,0,0,0.3,0,0.6c0,0.3-0.2,0.6-0.1,0.6c0,0-0.3,0.1-0.7,0.2s-0.7,0-0.7,0l0,0H10.9l0,0c0,0-0.3,0-0.6,0c-0.3,0-0.6-0.2-0.6-0.1
	c0.1,0.1-0.1-0.2-0.1-0.6c0-0.3,0-0.6,0-0.6l0,0V9.4l0,0c0,0,0-0.6,0.3-0.9c0.4-0.4,0.9-0.3,0.9-0.3l3.2,0V10c0,0.7,0.6,1.2,1.2,1.2
	h9c0.7,0,1.2-0.6,1.2-1.2V8.5l0-0.2h0.1l3.6,0c0,0,0.6,0.1,0.6,0.2c0.2,0.2,0.1,9,0.1,9h2.3V8.7l0,0.2c0,0,0.1-1.2-0.8-2
	c-0.5-0.5-1.2-0.7-1.6-0.8c-0.4,0-0.7,0-0.7,0l-3.6,0V5.6c0-0.7-0.6-1.2-1.2-1.2h-0.6c-0.1-0.5-0.3-1.2-0.6-1.9
	c-0.3-0.7-0.8-1.3-1.3-1.8C21.2,0.1,20.5-0.3,19.6-0.2L19.6-0.2z M19.7,2.1c0,0,0.2,0,0.5,0.3c0.3,0.2,0.6,0.6,0.7,1
	c0.1,0.3,0.2,0.6,0.3,0.9h-3.1c0-0.3,0.1-0.6,0.2-0.9c0.2-0.4,0.5-0.8,0.7-1C19.5,2.2,19.8,2.1,19.7,2.1L19.7,2.1z"/>
<path class="st0" d="M11.9,14.9c-1.7-0.1-1.7,2.5,0,2.4h9.5c1.7,0.1,1.7-2.5,0-2.4H11.9z M12.3,21.1c-1.7-0.1-1.7,2.5,0,2.4h5.6
	c1.7,0.1,1.7-2.5,0-2.4H12.3z M12.3,26.8c-1.6,0-1.6,2.4,0,2.4h13.1c1.6,0,1.6-2.4,0-2.4H12.3z"/>
<g>
	<path class="st1" d="M25.5,20.7v0.7h1.1v-0.7H25.5z"/>
	<path class="st0" d="M28.2,16.1l-7,5.2l6.9,4.7l0-2.9h9.5v-3.9h-9.5L28.2,16.1L28.2,16.1z"/>
</g>
</svg>
