<?xml version="1.0" encoding="utf-8"?>
<!-- Generator: Adobe Illustrator 22.1.0, SVG Export Plug-In . SVG Version: 6.00 Build 0)  -->
<svg version="1.1" id="Layer_1" xmlns="http://www.w3.org/2000/svg" xmlns:xlink="http://www.w3.org/1999/xlink" x="0px" y="0px"
	 viewBox="0 0 60 60" style="enable-background:new 0 0 60 60;" xml:space="preserve">
<style type="text/css">
	.st0{fill:#5C4D94;}
</style>
<path class="st0" d="M27.4,46.6c-3.1-1.3-6-3.2-8.5-5.5c-2.4-2.4-4.3-5.3-5.5-8.5c-1.3-3.2-2-6.6-2-10.1c-0.1-1.5,0-3.1,0.3-4.6
	C4.6,21.9,0.1,29.3,0,37.5c0.1,6,2.4,11.7,6.5,16L0,60h22.5c8,0,15.5-4.2,19.6-11.1h-4.6C34,48.8,30.6,48,27.4,46.6z"/>
<path class="st0" d="M37.5,45H60l-6.5-6.5c4.2-4.2,6.6-10,6.5-16C60,10.1,49.9,0,37.5,0S15,10.1,15,22.5S25.1,45,37.5,45
	C37.5,45,37.5,45,37.5,45z M26.4,26.1c-2,0-3.6-1.6-3.6-3.6c0-2,1.6-3.6,3.6-3.6c2,0,3.6,1.6,3.6,3.6v0C30,24.5,28.4,26.1,26.4,26.1
	z M48.9,18.9c2,0,3.6,1.6,3.6,3.6s-1.6,3.6-3.6,3.6c-2,0-3.6-1.6-3.6-3.6v0c-0.1-1.9,1.4-3.5,3.2-3.6C48.7,18.9,48.8,18.9,48.9,18.9
	z M41.4,22.5c0,2-1.6,3.6-3.6,3.6c-2,0-3.6-1.6-3.6-3.6s1.6-3.6,3.6-3.6l0,0C39.8,18.9,41.4,20.5,41.4,22.5z"/>
</svg>
