<?xml version="1.0" encoding="utf-8"?>
<!-- Generator: Adobe Illustrator 22.1.0, SVG Export Plug-In . SVG Version: 6.00 Build 0)  -->
<svg version="1.1" id="Layer_1" xmlns="http://www.w3.org/2000/svg" xmlns:xlink="http://www.w3.org/1999/xlink" x="0px" y="0px"
	 viewBox="0 0 73.9 60" style="enable-background:new 0 0 73.9 60;" xml:space="preserve">
<style type="text/css">
	.st0{fill:#5C4D94;}
</style>
<path class="st0" d="M0,59.7l0-2.5c1.1-0.4,2.1-0.8,3.2-1.1c1-0.2,1.9-0.5,2.8-1c0.3-0.4,0.5-0.9,0.5-1.4v-1
	c0.1-2.8,0.2-4.4,0.2-4.7c0-0.3,0-0.7,0-1.1l0-0.5l0-0.6v-0.4l-0.3-7.7l0-8.7l-0.1-0.9c-0.5,0-1.3,0-2.4-0.1H1l-0.8-0.1
	c0-0.8,0-1.5,0-2c0-0.7,0.2-1.5,0.6-2.1c0.9,0,2.7-0.1,5.3-0.3c0.1-3.4,0.7-6.8,1.7-10.1c0.9-2.8,2.2-5.3,4-7.6l1.2-1.3
	c1.6-1.5,3.5-2.7,5.5-3.5c1.9-0.7,3.9-1.1,5.9-1c1.9-0.1,3.8,0.3,5.5,1.1c1.3,0.6,2.4,1.5,3,2.8c0.5,1,0.8,2,0.8,3.1
	c0,1.3-0.6,2.5-1.5,3.3c-0.8,0.9-2,1.5-3.3,1.5c-1,0-1.9-0.3-2.7-0.9c-0.9-0.8-1.6-1.8-2.2-2.8c-0.5-1-1.2-1.9-2-2.7
	C21.7,5,21,4.8,20.4,4.8c-0.9,0-1.8,0.4-2.4,1.1c-0.8,0.9-1.3,2-1.5,3.1c-0.4,2.7-0.5,5.4-0.4,8.1l0,5l0,1.3l0.9,0l5.3-0.1
	c0.4,0,0.8,0.1,1.3,0.1c0.4,0.4,0.6,0.7,0.6,0.9l-0.1,0.9v1.2c0,0.3-0.1,0.7-0.1,1c-0.3,0.2-0.6,0.2-0.9,0.2h-0.4l-3.4,0.1
	c-0.4,0-0.9,0-1.3-0.1h-0.4c-0.5,0-0.9,0.1-1.4,0.2l0,2.2c0,0.2,0,0.5,0,1c0,1.7,0.1,2.9,0.1,3.5l0,6.6l0.1,4.8l0,3.9
	c-0.1,2.7,0.2,4.4,0.8,5c0.9,0.9,2.7,1.5,5.4,1.8c0.5,0,0.9,0.1,1.4,0.3c0.1,0.5,0.2,0.9,0.2,1.4c0,0.5-0.1,0.9-0.2,1.4h-3.2
	c-0.3,0-2-0.1-5.3-0.3l-2.4-0.2c-2.3,0-4.2,0-5.4,0.2C6.7,59.6,4.3,59.7,0,59.7z"/>
<path class="st0" d="M25.9,57.5c0.7-0.3,1.4-0.6,2.2-0.7c1-0.1,2-0.3,2.9-0.7c0.4-0.2,0.7-0.6,0.9-1c0.2-1.3,0.3-2.7,0.3-4v-3.9
	l0-3.2l-0.1-4.7v-2.9c0-1.6-0.1-3.1-0.4-4.7c-0.2-0.6-0.6-1-1.1-1.4c-1.3-0.8-2.8-1.4-4.3-1.8l0-2.2c0.3-0.1,0.7-0.2,1.1-0.3
	c0.3,0,1.5-0.3,3.6-0.9c1.7-0.6,2.7-1,3.2-1.3c0.1-0.1,0.4-0.2,0.7-0.4c0.4-0.3,0.8-0.6,1.2-0.9c1.2-1,2.3-2.1,3.3-3.3l2.4-0.2
	l-0.1,5.1c-0.1,0.4-0.1,0.8-0.1,1.2c0,0.2,0,0.9,0.1,2.1c2-1.9,4.3-3.4,6.8-4.5c2.4-1.1,5-1.6,7.6-1.7c2.6-0.1,5.2,0.7,7.4,2.1
	c1.9,1.1,3.4,2.8,4.2,4.9c0.7,1.8,1,5.5,1,11.1l-0.2,14.8c0,0.6,0.1,1.2,0.4,1.7c0.8,0.3,1.6,0.6,2.5,0.6l2.2,0.4
	c0.3,0.4,0.4,0.9,0.4,1.4c0,0.4,0,0.8,0,1.5L65,59.3l-2.6,0.1h-2.1l-6,0.4h-1.5c0-0.4,0-0.7,0-0.9c0-0.6,0-1.1,0.1-1.7
	c0.4-0.1,1.5-0.2,3.2-0.4c0.5-0.1,1-0.2,1.5-0.3c0.6-0.2,1-0.5,1-0.7c0.3-0.9,0.4-1.9,0.4-2.9c0-2.5,0-4.5,0-5.8l0-5.2
	c0-6.4-0.4-10.3-1.2-11.9c-0.9-2.1-2.9-3.4-5.1-3.4c-1.8,0-3.6,0.5-5.2,1.3c-2,1-3.9,2.3-5.6,3.9l-0.1,0.8l0.1,2.9l-0.1,3l0.2,7.2
	l-0.1,1.1c0,4.9,0.2,7.7,0.6,8.3s1.9,1.3,4.5,2.1c0.1,0.4,0.1,0.8,0.1,1.1c0,0.6-0.1,1.1-0.3,1.7c-0.9,0-1.7,0-2.4,0
	c-1,0-2-0.1-3-0.3l-4.8-0.1c-2.4,0-5.9,0.1-10.5,0.3c-0.1-0.3-0.2-0.6-0.2-0.9C25.9,58.7,25.9,58.2,25.9,57.5z"/>
</svg>
