<?xml version="1.0" encoding="utf-8"?>
<!-- Generator: Adobe Illustrator 22.1.0, SVG Export Plug-In . SVG Version: 6.00 Build 0)  -->
<svg version="1.1"
	 id="svg1007" inkscape:version="0.92.2 (5c3e80d, 2017-08-06)" sodipodi:docname="gavelActive.svg" xmlns:cc="http://creativecommons.org/ns#" xmlns:dc="http://purl.org/dc/elements/1.1/" xmlns:inkscape="http://www.inkscape.org/namespaces/inkscape" xmlns:rdf="http://www.w3.org/1999/02/22-rdf-syntax-ns#" xmlns:sodipodi="http://sodipodi.sourceforge.net/DTD/sodipodi-0.dtd" xmlns:svg="http://www.w3.org/2000/svg"
	 xmlns="http://www.w3.org/2000/svg" xmlns:xlink="http://www.w3.org/1999/xlink" x="0px" y="0px" viewBox="0 0 1792 1792"
	 style="enable-background:new 0 0 1792 1792;" xml:space="preserve">
<style type="text/css">
	.st0{fill:#5C4D94;}
	.st1{fill:#7F74C1;}
</style>
<sodipodi:namedview  bordercolor="#666666" borderopacity="1" gridtolerance="10" guidetolerance="10" id="namedview1009" inkscape:current-layer="svg1007" inkscape:cx="833.10865" inkscape:cy="494.14778" inkscape:pageopacity="0" inkscape:pageshadow="2" inkscape:window-height="846" inkscape:window-maximized="0" inkscape:window-width="1440" inkscape:window-x="0" inkscape:window-y="54" inkscape:zoom="0.26082454" objecttolerance="10" pagecolor="#ffffff" showgrid="false">
	</sodipodi:namedview>
<path id="path1005" class="st0" d="M1771,1536c0,35.3-12.3,65.3-37,90l-107,108c-26,24.7-56.3,37-91,37c-35.3,0-65.3-12.3-90-37
	l-363-364c-25.3-24-38-54-38-90c0-35.3,14.3-67.3,43-96L832,928l-126,126c-9.3,9.3-20.7,14-34,14s-24.7-4.7-34-14
	c1.3,1.3,5.5,5.3,12.5,12s11.2,11,12.5,13s4.7,5.8,10,11.5s8.7,10.2,10,13.5s3.3,7.8,6,13.5s4.5,11.2,5.5,16.5s1.5,11.3,1.5,18
	c0,25.3-9.3,48-28,68c-2,2-7.5,8-16.5,18s-15.3,16.8-19,20.5s-9.8,9.2-18.5,16.5s-16,12.5-22,15.5s-13.3,6-22,9s-17.3,4.5-26,4.5
	c-26.7,0-49.3-9.3-68-28L68,868c-18.7-18.7-28-41.3-28-68c0-8.7,1.5-17.3,4.5-26s6-16,9-22s8.2-13.3,15.5-22s12.8-14.8,16.5-18.5
	s10.5-10,20.5-19s16-14.5,18-16.5c20-18.7,42.7-28,68-28c6.7,0,12.7,0.5,18,1.5s10.8,2.8,16.5,5.5s10.2,4.7,13.5,6s7.8,4.7,13.5,10
	c5.7,5.3,9.5,8.7,11.5,10s6.3,5.5,13,12.5s10.7,11.2,12,12.5c-9.3-9.3-14-20.7-14-34s4.7-24.7,14-34l348-348c9.3-9.3,20.7-14,34-14
	s24.7,4.7,34,14c-1.3-1.3-5.5-5.3-12.5-12s-11.2-11-12.5-13s-4.7-5.8-10-11.5c-5.3-5.7-8.7-10.2-10-13.5s-3.3-7.8-6-13.5
	s-4.5-11.2-5.5-16.5s-1.5-11.3-1.5-18c0-25.3,9.3-48,28-68c2-2,7.5-8,16.5-18s15.3-16.8,19-20.5s9.8-9.2,18.5-16.5s16-12.5,22-15.5
	s13.3-6,22-9s17.3-4.5,26-4.5c26.7,0,49.3,9.3,68,28l408,408c18.7,18.7,28,41.3,28,68c0,8.7-1.5,17.3-4.5,26s-6,16-9,22
	s-8.2,13.3-15.5,22s-12.8,14.8-16.5,18.5s-10.5,10-20.5,19s-16,14.5-18,16.5c-20,18.7-42.7,28-68,28c-6.7,0-12.7-0.5-18-1.5
	s-10.8-2.8-16.5-5.5s-10.2-4.7-13.5-6s-7.8-4.7-13.5-10s-9.5-8.7-11.5-10s-6.3-5.5-13-12.5s-10.7-11.2-12-12.5
	c9.3,9.3,14,20.7,14,34s-4.7,24.7-14,34L928,832l256,256c28.7-28.7,60.7-43,96-43c34.7,0,65,12.3,91,37l363,363
	C1758.7,1471,1771,1501.3,1771,1536z"/>
<path id="path1015" inkscape:connector-curvature="0" sodipodi:nodetypes="sccsccsccsscccscssscsssscscssssssscssssscscsssscscssssscssssssscscsssscssscccccssccsccs" class="st1" d="
	M1629,1472.5c0,20.2-7.4,37.4-22.1,51.6l-63.8,61.9c-15.5,14.1-33.6,21.2-54.3,21.2c-21.1,0-39-7.1-53.7-21.2l-216.6-208.5
	c-15.1-13.7-22.7-30.9-22.7-51.6c0-20.2,18-48.1,35.1-64.5L778.7,820.2L596.4,996.4c-5.5,5.4-12.3,8-20.3,8s-14.7-2.7-20.3-8
	c0.8,0.8,3.3,3.1,7.5,6.9c4.2,3.8,6.7,6.3,7.5,7.4c0.8,1.1,2.8,3.3,6,6.6c3.2,3.2,5.2,5.8,6,7.7c0.8,1.9,2,4.5,3.6,7.7
	c1.6,3.2,2.7,6.4,3.3,9.5s0.9,6.5,0.9,10.3c0,14.5-5.6,27.5-16.7,39c-1.2,1.1-4.5,4.6-9.8,10.3c-5.4,5.7-9.1,9.6-11.3,11.7
	c-2.2,2.1-5.9,5.3-11,9.5c-5.2,4.2-9.5,7.2-13.1,8.9s-8,3.4-13.1,5.2c-5.2,1.7-10.3,2.6-15.5,2.6c-15.9,0-29.4-5.3-40.6-16
	L215.8,889.9c-11.1-10.7-16.7-23.7-16.7-39c0-5,0.9-9.9,2.7-14.9c1.8-5,3.6-9.2,5.4-12.6c1.8-3.4,4.9-7.6,9.2-12.6s7.7-8.5,9.8-10.6
	c2.2-2.1,6.3-5.7,12.2-10.9c6-5.2,9.5-8.3,10.7-9.5c11.9-10.7,25.5-16,40.6-16c4,0,7.6,0.3,10.7,0.9s6.5,1.6,9.8,3.2
	c3.4,1.5,6.1,2.7,8.1,3.4c2,0.8,4.7,2.7,8.1,5.7s5.7,5,6.9,5.7c1.2,0.8,3.8,3.2,7.8,7.2s6.4,6.4,7.2,7.2c-5.6-5.3-8.4-11.8-8.4-19.5
	c0-7.6,2.8-14.1,8.4-19.5l412.7-397.2c5.6-5.4,12.3-8,20.3-8s14.7,2.7,20.3,8c-0.8-0.8-3.3-3.1-7.5-6.9c-4.2-3.8-6.7-6.3-7.5-7.4
	s-2.8-3.3-6-6.6s-5.2-5.8-6-7.7c-0.8-1.9-2-4.5-3.6-7.7s-2.7-6.4-3.3-9.5c-0.6-3.1-0.9-6.5-0.9-10.3c0-14.5,5.6-27.5,16.7-39
	c1.2-1.1,4.5-4.6,9.8-10.3c5.4-5.7,9.1-9.6,11.3-11.7s5.9-5.3,11-9.5c5.2-4.2,9.5-7.2,13.1-8.9s8-3.4,13.1-5.2
	c5.2-1.7,10.3-2.6,15.5-2.6c15.9,0,29.4,5.3,40.6,16l243.4,233.7c11.1,10.7,16.7,23.7,16.7,39c0,5-0.9,9.9-2.7,14.9
	c-1.8,5-3.6,9.2-5.4,12.6s-4.9,7.6-9.2,12.6c-4.4,5-7.7,8.5-9.8,10.6s-6.3,5.7-12.2,10.9c-6,5.2-9.5,8.3-10.7,9.5
	c-11.9,10.7-25.5,16-40.6,16c-4,0-7.6-0.3-10.7-0.9c-3.2-0.6-6.5-1.6-9.8-3.2c-3.4-1.5-6.1-2.7-8.1-3.4c-2-0.8-4.7-2.7-8.1-5.7
	c-3.4-3.1-5.7-5-6.9-5.7c-1.2-0.8-3.8-3.2-7.8-7.2s-6.4-6.4-7.2-7.2c5.6,5.3,8.4,11.8,8.4,19.5c0,7.6-2.8,14.1-8.4,19.5L815.6,782.8
	L1268,1224c17.1-16.4,47-32.8,68.1-32.8c20.7,0,38.8,7.1,54.3,21.2l216.6,208C1621.7,1435.3,1629,1452.7,1629,1472.5L1629,1472.5z"
	/>
</svg>
