<?xml version="1.0" encoding="utf-8"?>
<!-- Generator: Adobe Illustrator 22.1.0, SVG Export Plug-In . SVG Version: 6.00 Build 0)  -->
<svg version="1.1" id="Layer_1" xmlns="http://www.w3.org/2000/svg" xmlns:xlink="http://www.w3.org/1999/xlink" x="0px" y="0px"
	 viewBox="0 0 60 58.7" style="enable-background:new 0 0 60 58.7;" xml:space="preserve">
<style type="text/css">
	.st0{fill:#5C4D94;}
</style>
<path class="st0" d="M30.2,0C13.5,0,0,13.4,0,30c0,0.1,0,0.1,0,0.2c-0.1,13,8.3,24.6,20.7,28.5c1.6,0.3,2-0.7,2-1.3v-5.2
	c-8.5,2-10.2-3.9-10.2-3.9c-1.3-3.6-3.3-4.3-3.3-4.3c-2.6-2,0.3-2,0.3-2c1.9,0.3,3.5,1.4,4.6,3c2.6,4.6,7.2,3.3,8.9,2.6
	c0.3-2,1-3.3,2-3.9c-6.6-0.7-13.8-3.3-13.8-14.8c0.1-3,1.1-5.9,3-8.2c-0.9-2.6-0.8-5.4,0.3-7.9c0,0,2.6-0.7,8.2,3
	c4.9-1.3,10.1-1.3,15.1,0c5.9-3.9,8.2-3,8.2-3c1.6,4.3,0.7,7.2,0.3,7.9c2,2.2,3.1,5.2,3,8.2c0,11.5-7.2,14.1-13.8,14.8
	c1.4,1.5,2.1,3.5,2,5.6v8.2c0,0.8,0.7,1.4,1.5,1.4c0.1,0,0.3,0,0.4-0.1C51.7,54.6,60,43.1,60,30.2C60.2,13.7,47,0.2,30.6,0
	C30.4,0,30.3,0,30.2,0z"/>
</svg>
