<?xml version="1.0" encoding="utf-8"?>
<!-- Generator: Adobe Illustrator 22.1.0, SVG Export Plug-In . SVG Version: 6.00 Build 0)  -->
<svg version="1.1" id="Layer_1" xmlns="http://www.w3.org/2000/svg" xmlns:xlink="http://www.w3.org/1999/xlink" x="0px" y="0px"
	 viewBox="0 0 30 30" style="enable-background:new 0 0 30 30;" xml:space="preserve">
<style type="text/css">
	.st0{fill:none;}
	.st1{fill:#5C4D94;}
	.st2{fill:#8795A2;}
</style>
<g transform="translate(8695)">
	<rect x="-8695" class="st0" width="30" height="30"/>
	<g transform="translate(364.498 49.785)">
		<path class="st0" d="M-9041.9-36.1L-9041.9-36.1c0-1.6-1.3-2.8-2.9-2.8c0,0,0,0,0,0c0.9,0,1.8,0.4,2.4,1.2
			C-9042.1-37.3-9041.9-36.7-9041.9-36.1c0,1.6-1.2,2.9-2.8,2.9C-9043.1-33.3-9041.8-34.6-9041.9-36.1z"/>
		<path class="st1" d="M-9044.9-46c-6.2,0.1-11.2,5.3-11.1,11.5s5.3,11.2,11.5,11.1l11.3-0.2l-3.4-3.2c4.4-4.5,4.3-11.6-0.2-16
			C-9038.9-44.9-9041.9-46.1-9044.9-46z M-9043.9-27.6l-1.4,0l0-1.4l1.4,0L-9043.9-27.6z M-9043.9-31.9l0,1.4l-1.4,0l-0.1-2.8l0.7,0
			c1.6,0,2.8-1.3,2.8-2.9s-1.3-2.8-2.9-2.8c0,0,0,0,0,0c-1.6,0-2.8,1.3-2.8,2.9l-1.4,0c0-2.3,1.8-4.3,4.2-4.3c2.3,0,4.3,1.8,4.3,4.2
			C-9040.4-34.1-9041.9-32.3-9043.9-31.9L-9043.9-31.9z"/>
		<path class="st2" d="M-9044.8-40.3c-2.3,0.1-4.2,2-4.2,4.3l1.4,0c0-1.6,1.2-2.9,2.8-2.9c0.9,0,1.8,0.4,2.3,1.2
			c0.3,0.5,0.5,1,0.5,1.6l0,0c0,1.6-1.2,2.9-2.8,2.9l-0.7,0l0,2.8l1.4,0l0-1.4c2.3-0.4,3.8-2.7,3.4-5
			C-9040.9-38.9-9042.7-40.4-9044.8-40.3L-9044.8-40.3z"/>
		
			<rect x="-9045.3" y="-29" transform="matrix(0.9998 -1.748731e-02 1.748731e-02 0.9998 -0.8878 -158.1698)" class="st2" width="1.4" height="1.4"/>
	</g>
</g>
</svg>
