<?xml version="1.0" encoding="utf-8"?>
<!-- Generator: Adobe Illustrator 22.1.0, SVG Export Plug-In . SVG Version: 6.00 Build 0)  -->
<svg version="1.1" id="Layer_1" xmlns="http://www.w3.org/2000/svg" xmlns:xlink="http://www.w3.org/1999/xlink" x="0px" y="0px"
	 viewBox="0 0 56.5 60" style="enable-background:new 0 0 56.5 60;" xml:space="preserve">
<style type="text/css">
	.st0{fill:#5C4D94;}
</style>
<g transform="translate(7093.474 1331)">
	<path class="st0" d="M-7091.9-1329.6v57.3h4.1v1.4h-5.7v-60h5.7v1.4H-7091.9z"/>
	<path class="st0" d="M-7076-1311.4v2.9h0.1c0.7-1.1,1.7-1.9,2.8-2.6c1.1-0.6,2.4-0.9,3.7-0.9c1.3,0,2.5,0.3,3.7,0.8
		c1.2,0.6,2.1,1.6,2.5,2.8c0.7-1,1.6-1.8,2.6-2.5c1.2-0.7,2.5-1.1,3.9-1.1c1.1,0,2.1,0.1,3.2,0.4c1.9,0.5,3.4,1.9,4.1,3.7
		c0.4,1.1,0.6,2.3,0.6,3.5v14.3h-5.9v-12.2c0-0.7,0-1.4-0.1-2c0-0.6-0.2-1.1-0.5-1.7c-0.3-0.5-0.6-0.9-1.1-1.1
		c-0.6-0.3-1.3-0.4-2-0.4c-0.7,0-1.4,0.1-2,0.5c-0.5,0.3-0.9,0.7-1.2,1.2c-0.3,0.5-0.5,1.1-0.6,1.7c-0.1,0.6-0.1,1.3-0.1,2v11.9
		h-5.9v-12c0-0.6,0-1.3,0-1.9c0-0.6-0.1-1.2-0.4-1.7c-0.2-0.5-0.6-1-1-1.3c-0.7-0.4-1.4-0.5-2.1-0.5c-0.4,0-0.7,0.1-1.1,0.2
		c-0.5,0.1-0.9,0.4-1.3,0.7c-0.5,0.4-0.9,0.9-1.1,1.5c-0.3,0.8-0.5,1.7-0.5,2.5v12.4h-5.9v-21.4H-7076z"/>
	<path class="st0" d="M-7038.5-1272.4v-57.3h-4.1v-1.4h5.7v60h-5.7v-1.4H-7038.5L-7038.5-1272.4z"/>
</g>
</svg>
