<?xml version="1.0" encoding="utf-8"?>
<!-- Generator: Adobe Illustrator 22.1.0, SVG Export Plug-In . SVG Version: 6.00 Build 0)  -->
<svg version="1.1" id="Layer_2_1_" xmlns="http://www.w3.org/2000/svg" xmlns:xlink="http://www.w3.org/1999/xlink" x="0px" y="0px"
	 viewBox="0 0 500 500" style="enable-background:new 0 0 500 500;" xml:space="preserve">
<style type="text/css">
	.st0{fill:#2F9BC2;}
	.st1{fill:#5C4D94;}
	.st2{fill:#FFFFFF;}
</style>
<g id="WORKING-AREA-_x5B_-John-Please-Ignore-_x5D_">
	<g id="Artboard-2" transform="translate(-911.000000, -729.000000)">
		<g id="Group-3-Copy-2" transform="translate(911.000000, 715.000000)">
			<ellipse id="Oval-4-Copy-5" class="st0" cx="248.9" cy="264" rx="161.7" ry="161"/>
			<g id="Oval-4-Copy-5_1_" transform="translate(38.168889, 0.000000)">
				<g id="Mask">
				</g>
				<ellipse class="st1" cx="211.4" cy="264" rx="161.7" ry="161"/>
			</g>
		</g>
	</g>
</g>
<g>
	<path class="st2" d="M307.1,215.3h10.4l7.9,13.6v6.4h3.7h35h1.4v-4.5v-2l0,0c0,0-4.8,0-8.7-6.1l-0.1-0.1c-0.1-0.1-0.1-0.3-0.2-0.4
		c-0.2-0.3-0.4-0.7-0.6-1l0,0l-3.4-5.9l0,0l-14-24.2h-31.4L307.1,215.3L307.1,215.3z"/>
	<path class="st2" d="M303.9,321.4C303.9,321.4,303.8,321.4,303.9,321.4v-6.2h-30.3v6.2l0,0c0,11.1-7,13-12.1,13h12.1l0,0h-12.1v6.5
		H316v-6.5h-12.1l0,0H316C310.9,334.4,303.9,332.5,303.9,321.4z"/>
	<path class="st2" d="M365.5,272.1v-4.5h-1.4h-35h-3.7v6.4l-7.9,13.6h-13.7V185.8v-4.3l0,0c0-7.6,2-13,7-13l0,0l0,0V162h-7.1l0,0
		h-30.3l0,0h-7.1v6.5l0,0l0,0c5.1,0,7,5.5,7,13l0,0v9.5h-40.4v-9.5l0,0c0-7.6,2-13,7-13l0,0l0,0V162h-7.1l0,0h-30.3l0,0h-7.1v6.5
		l0,0l0,0c5.1,0,7,5.5,7,13l0,0v9.5h-34.6l-2.6,4.6l-11.4,19.7l-9,15.6l0,0l-11.9,20.6l11.9,20.7l0,0l9,15.5l11.4,19.7l2.6,4.5h31.4
		v-24.2h-10.4l-20.9-36.2l20.9-36.2h84.4v24.1h-40.4v-20.9h-30.3v102.9l0,0c0,11.1-7,13-12.1,13h12.1l0,0h-12.1v6.5h54.5v-6.5h-12.1
		l0,0h12.1c-5.1,0-12.1-1.9-12.1-13l0,0v-9.5h105.4l14-24.2l0,0l3.4-5.9l0,0c0.2-0.4,0.4-0.7,0.6-1.1c0.1-0.1,0.1-0.2,0.2-0.3
		c0.1-0.1,0.2-0.3,0.3-0.4c3.8-5.8,8.5-5.8,8.5-5.8l0,0v-2.1L365.5,272.1L365.5,272.1z M273.6,287.7h-40.4v-24.1h40.4V287.7z"/>
</g>
</svg>
