<svg 
 xmlns="http://www.w3.org/2000/svg"
 xmlns:xlink="http://www.w3.org/1999/xlink"
 viewBox="0 0 20 18">
<path fill-rule="evenodd"  fill="rgb(255, 255, 255)"
 d="M19.342,13.433 L18.421,13.433 L18.421,17.330 C18.421,17.709 18.136,17.999 17.763,17.999 L2.237,17.999 C1.009,17.999 -0.000,16.974 -0.000,15.727 L-0.000,2.830 C-0.000,2.785 -0.000,2.719 -0.000,2.674 C-0.000,1.204 1.184,0.001 2.631,0.001 L15.504,0.001 C15.877,0.001 16.162,0.291 16.162,0.669 L16.162,1.259 L2.516,1.259 L2.511,1.343 C1.826,1.402 1.316,1.958 1.316,2.674 C1.316,3.431 1.886,4.011 2.631,4.011 L2.641,4.011 L2.641,4.028 L16.730,4.028 L16.730,4.011 L17.741,4.011 C18.114,4.011 18.399,4.300 18.399,4.679 L18.399,8.443 L19.342,8.443 C19.715,8.443 20.000,8.733 20.000,9.111 L20.000,12.764 C20.000,13.143 19.715,13.433 19.342,13.433 ZM18.684,9.780 L15.022,9.780 L15.022,12.096 L18.684,12.096 L18.684,9.780 Z"/>
</svg>