<?xml version="1.0" encoding="utf-8"?>
<!-- Generator: Adobe Illustrator 22.1.0, SVG Export Plug-In . SVG Version: 6.00 Build 0)  -->
<svg version="1.1" id="Layer_1" xmlns="http://www.w3.org/2000/svg" xmlns:xlink="http://www.w3.org/1999/xlink" x="0px" y="0px"
	 viewBox="0 0 16 16" style="enable-background:new 0 0 16 16;" xml:space="preserve">
<style type="text/css">
	.st0{fill:#5C4D94;}
	.st1{fill:none;}
</style>
<g transform="translate(1162 893)">
	<g transform="translate(19 736)">
		<g transform="translate(1.778 1.778)">
			<path class="st0" d="M-1174.8-1618.1c-1.2,0-2.4-0.5-3.3-1.4l1.7-1.7h-4.7v4.7l1.8-1.8c2.4,2.4,6.4,2.4,8.8,0
				c1.2-1.2,1.8-2.8,1.8-4.4h-1.6C-1170.1-1620.2-1172.2-1618.1-1174.8-1618.1C-1174.8-1618.1-1174.8-1618.1-1174.8-1618.1z"/>
			<path class="st0" d="M-1174.8-1629c-3.4,0-6.2,2.8-6.2,6.2h1.6c0-2.6,2.1-4.7,4.7-4.7c1.2,0,2.4,0.5,3.3,1.4l-1.7,1.7h4.7v-4.7
				l-1.8,1.8C-1171.5-1628.3-1173.1-1629-1174.8-1629z"/>
		</g>
		<rect x="-1181" y="-1629" class="st1" width="16" height="16"/>
	</g>
</g>
</svg>
