<?xml version="1.0" encoding="utf-8"?>
<!-- Generator: Adobe Illustrator 22.1.0, SVG Export Plug-In . SVG Version: 6.00 Build 0)  -->
<svg version="1.1" id="Layer_1" xmlns="http://www.w3.org/2000/svg" xmlns:xlink="http://www.w3.org/1999/xlink" x="0px" y="0px"
	 viewBox="0 0 16 16" style="enable-background:new 0 0 16 16;" xml:space="preserve">
<style type="text/css">
	.st0{fill:none;}
	.st1{fill:#8795A3;}
	.st2{fill:#09182D;}
	.st3{fill:#5C4D94;}
</style>
<g transform="translate(1162 893)">
	<rect x="-1162" y="-893" class="st0" width="16" height="16"/>
	<g transform="translate(20.017 683.023)">
		<g transform="translate(0.004)">
			<path class="st1" d="M-1181-1573C-1181-1573-1181-1573-1181-1573C-1181-1573-1181-1573-1181-1573z"/>
			<path class="st2" d="M-1179.8-1570.5l10.8-0.4v-1.9c0-0.7-0.5-1.2-1.2-1.2l0,0h-9.6c-0.6,0-1.1,0.4-1.2,1
				C-1180.9-1572.4-1180.4-1570.5-1179.8-1570.5z"/>
			<path class="st1" d="M-1181-1572.9C-1181-1572.9-1181-1572.9-1181-1572.9C-1181-1572.9-1181-1572.9-1181-1572.9z"/>
			<path class="st1" d="M-1181-1572.9C-1181-1572.9-1181-1572.9-1181-1572.9C-1181-1572.9-1181-1572.9-1181-1572.9z"/>
			<path class="st2" d="M-1169.5-1567c0,1.4,1.1,2.5,2.5,2.5v-5C-1168.4-1569.5-1169.5-1568.4-1169.5-1567
				C-1169.5-1567-1169.5-1567-1169.5-1567z"/>
		</g>
		<path class="st3" d="M-1168.2-1572h-11.6c-0.6,0-1.1-0.4-1.2-1l0,0c0,0,0,0,0,0v0c0,0,0,0,0,0c0,0,0,0,0,0c0,0,0,0,0,0v9.6
			c0,0.7,0.5,1.2,1.2,1.2h11.6c0.7,0,1.2-0.5,1.2-1.2v-1.3c-1.4,0-2.5-1.1-2.5-2.5s1.1-2.5,2.5-2.5v-1.3
			C-1167-1571.5-1167.6-1572-1168.2-1572C-1168.2-1572-1168.2-1572-1168.2-1572z"/>
	</g>
</g>
</svg>
