<svg 
 xmlns="http://www.w3.org/2000/svg"
 xmlns:xlink="http://www.w3.org/1999/xlink"
 viewBox="0 0 24 24">
<path fill-rule="evenodd"  fill="rgb(255, 255, 255)"
 d="M19.436,6.372 C19.107,2.802 16.258,-0.000 12.750,-0.000 C10.035,-0.000 7.711,1.681 6.640,4.093 C6.318,3.986 5.981,3.913 5.625,3.913 C3.761,3.913 2.250,5.490 2.250,7.434 C2.250,7.821 2.324,8.186 2.434,8.533 C0.985,9.415 -0.000,11.035 -0.000,12.912 C-0.000,15.721 2.183,17.999 4.875,17.999 L4.875,17.999 L18.375,17.999 L18.375,17.999 C21.483,17.999 24.000,15.372 24.000,12.129 C24.000,9.267 22.035,6.891 19.436,6.372 ZM7.023,12.813 L5.246,10.971 C4.990,10.534 5.199,10.178 5.709,10.178 L6.487,10.178 C6.555,6.861 9.119,4.191 12.280,4.191 C13.882,4.191 15.331,4.877 16.380,5.985 L15.081,7.297 C14.367,6.544 13.369,6.084 12.280,6.079 C10.087,6.068 8.368,7.935 8.307,10.178 L9.266,10.178 C9.774,10.178 9.984,10.534 9.729,10.971 L7.951,12.813 C7.696,13.249 7.278,13.249 7.023,12.813 ZM18.641,10.168 L17.861,10.168 C17.793,13.486 15.221,16.156 12.052,16.156 C10.446,16.156 8.993,15.470 7.940,14.362 L9.243,13.051 C9.959,13.804 10.961,14.263 12.051,14.268 C14.251,14.281 15.973,12.412 16.034,10.168 L15.075,10.168 C14.563,10.168 14.353,9.813 14.609,9.376 L16.392,7.534 C16.649,7.099 17.066,7.099 17.322,7.534 L19.104,9.376 C19.361,9.812 19.152,10.168 18.641,10.168 Z"/>
</svg>