<?xml version="1.0" encoding="utf-8"?>
<!-- Generator: Adobe Illustrator 22.1.0, SVG Export Plug-In . SVG Version: 6.00 Build 0)  -->
<svg version="1.1" id="Layer_1" xmlns="http://www.w3.org/2000/svg" xmlns:xlink="http://www.w3.org/1999/xlink" x="0px" y="0px"
	 viewBox="0 0 59.9 51" style="enable-background:new 0 0 59.9 51;" xml:space="preserve">
<style type="text/css">
	.st0{fill:#5C4D94;}
	.st1{fill:#D3CCFF;}
</style>
<path class="st0" d="M8.9,51c-3.1,0-6.1-0.7-8.9-2c0.1-0.1,7.6-6.3,6.4-11.7c-3.3-3-5.2-7.2-5.3-11.7v-0.1c0.1-4.4,2-8.7,5.2-11.7
	C7.6,8.3,0.1,2.1,0,2c2.7-1.4,5.7-2,8.8-2C12,0,15.1,0.8,18,2.2c1.8,1,3.5,2.2,5.1,3.6c2.4-0.4,4.9-0.7,7.4-0.7
	c7.1-0.1,14,1.7,20.1,5.4c2.6,1.6,4.9,3.8,6.6,6.3c1.7,2.5,2.7,5.5,2.7,8.6c0,3.1-0.9,6.1-2.6,8.6c-1.8,2.5-4,4.7-6.6,6.3
	c-6.1,3.6-13,5.5-20.1,5.4c-2.5,0-5-0.2-7.4-0.7c-1.5,1.4-3.2,2.6-5.1,3.6C15.2,50.2,12.1,50.9,8.9,51z M30.5,9.4
	c-13.9,0-25.2,7.2-25.2,16c0,3.8,2,7.4,5.7,10.2c0.4,4.2-1.1,8.5-4.2,11.4c0.8,0.2,1.6,0.3,2.4,0.3c5,0,9.9-3.7,12.5-6.8
	c2.9,0.7,5.8,1,8.8,1c13.9,0,25.2-7.2,25.2-16.1S44.4,9.4,30.5,9.4L30.5,9.4z"/>
<g transform="translate(7113.494 1213.76)">
	<g transform="translate(11.665)">
		<circle class="st0" cx="-7094.6" cy="-1187.7" r="3.3"/>
	</g>
	<g transform="translate(23.33)">
		<circle class="st0" cx="-7094.6" cy="-1187.7" r="3.3"/>
	</g>
	<circle class="st0" cx="-7094.6" cy="-1187.7" r="3.3"/>
</g>
<g transform="translate(7104.819 1216.811)">
	<path class="st1" d="M-7074.3-1177.3c-3,0-5.9-0.3-8.8-0.9c-2.5,2.6-7.5,6-12.8,5.9c-0.6,0.9-1.3,1.8-2.1,2.6
		c6,1.5,12.1-3.2,14.9-6.5c2.9,0.7,5.8,1,8.8,1c13.8,0,25.1-7.1,25.2-15.9C-7049.2-1183.4-7060.5-1177.3-7074.3-1177.3z"/>
</g>
</svg>
