<?xml version="1.0" encoding="utf-8"?>
<!-- Generator: Adobe Illustrator 22.1.0, SVG Export Plug-In . SVG Version: 6.00 Build 0)  -->
<svg version="1.1" id="Layer_1" xmlns="http://www.w3.org/2000/svg" xmlns:xlink="http://www.w3.org/1999/xlink" x="0px" y="0px"
	 viewBox="0 0 40 40" style="enable-background:new 0 0 40 40;" xml:space="preserve">
<style type="text/css">
	.st0{fill:#5C4D94;}
</style>
<path id="XMLID_61_" class="st0" d="M40,37.7L29.3,27c2.3-2.9,3.7-6.5,3.7-10.5C33.1,7.4,25.7,0,16.5,0S0,7.4,0,16.5
	c0,9.1,7.4,16.5,16.5,16.5c4,0,7.6-1.4,10.5-3.7L37.7,40L40,37.7z M3.7,16.5c0-7.1,5.8-12.8,12.8-12.8c7.1,0,12.8,5.8,12.8,12.8
	s-5.8,12.8-12.8,12.8C9.4,29.4,3.7,23.6,3.7,16.5z"/>
</svg>
