<?xml version="1.0" encoding="utf-8"?>
<!-- Generator: Adobe Illustrator 22.1.0, SVG Export Plug-In . SVG Version: 6.00 Build 0)  -->
<svg version="1.1" id="Layer_1" xmlns="http://www.w3.org/2000/svg" xmlns:xlink="http://www.w3.org/1999/xlink" x="0px" y="0px"
	 viewBox="0 0 20 10.6" style="enable-background:new 0 0 20 10.6;" xml:space="preserve">
<style type="text/css">
	.st0{fill:#5C4D94;}
</style>
<g id="Symbol_21_1" transform="translate(5036)">
	<circle id="XMLID_1_" class="st0" cx="-5026" cy="5.3" r="2.3"/>
	<g id="Group_569" transform="translate(1043 242.378)">
		<path id="Path_219" class="st0" d="M-6077.8-237.5l0.9-0.9c0.1-0.1,0.1-0.3,0-0.5c-0.1-0.1-0.3-0.1-0.5,0l-1.5,1.5
			c-0.1,0.1-0.1,0.2-0.1,0.3c0,0.1,0,0.2,0.1,0.2l1.5,1.5c0.1,0.1,0.3,0.1,0.5,0c0.1-0.1,0.1-0.3,0-0.5l-0.9-0.9h5.6v-0.7H-6077.8z"
			/>
	</g>
	<g id="Group_570" transform="translate(1056.195 242.373)">
		<path id="Path_220" class="st0" d="M-6073.4-236.8l-0.9,0.9c-0.1,0.1-0.1,0.4,0,0.5c0.1,0.1,0.3,0.1,0.5,0l1.5-1.5
			c0.1-0.1,0.1-0.2,0.1-0.3c0-0.1,0-0.2-0.1-0.2l-1.5-1.5c-0.1-0.1-0.4-0.1-0.5,0c-0.1,0.1-0.1,0.3,0,0.5l0.9,0.9h-5.6v0.7
			L-6073.4-236.8L-6073.4-236.8z"/>
	</g>
	<g id="Group_573" transform="translate(1051.183 239)">
		<g id="Group_571" transform="translate(0.005 8.39)">
			<path id="Path_221" class="st0" d="M-6077.5-238l-0.9-0.9c-0.1-0.1-0.4-0.1-0.5,0c-0.1,0.1-0.1,0.3,0,0.5l1.5,1.5
				c0.1,0.1,0.2,0.1,0.3,0.1c0.1,0,0.2,0,0.2-0.1l1.5-1.5c0.1-0.1,0.1-0.3,0-0.5c-0.1-0.1-0.3-0.1-0.5,0c0,0,0,0,0,0l-0.9,0.9v-0.9
				h-0.7L-6077.5-238L-6077.5-238z"/>
		</g>
		<g id="Group_572">
			<path id="Path_222" class="st0" d="M-6076.9-237.8l0.9,0.9c0.1,0.1,0.3,0.1,0.5,0c0.1-0.1,0.1-0.3,0-0.5l-1.5-1.5
				c-0.1-0.1-0.2-0.1-0.3-0.1c-0.1,0-0.2,0-0.2,0.1l-1.5,1.5c-0.1,0.1-0.1,0.3,0,0.5c0.1,0.1,0.3,0.1,0.5,0l0.9-0.9v0.9h0.7V-237.8z
				"/>
		</g>
	</g>
</g>
</svg>
