<?xml version="1.0" encoding="utf-8"?>
<!-- Generator: Adobe Illustrator 22.1.0, SVG Export Plug-In . SVG Version: 6.00 Build 0)  -->
<svg version="1.1" id="Layer_1" xmlns="http://www.w3.org/2000/svg" xmlns:xlink="http://www.w3.org/1999/xlink" x="0px" y="0px"
	 viewBox="0 0 20 13.3" style="enable-background:new 0 0 20 13.3;" xml:space="preserve">
<style type="text/css">
	.st0{fill:#D3CCFF;}
	.st1{fill:#5C4D94;}
</style>
<g id="Symbol_19_1" transform="translate(3756)">
	<g id="XMLID_1_" transform="translate(1073.587 237.591)">
		<rect id="XMLID_4_" x="-4829.6" y="-232.2" class="st0" width="14.6" height="7.9"/>
		<path id="XMLID_3_" class="st1" d="M-4826.9-234.9h14.6v7.9h-14.6V-234.9z"/>
		<path id="XMLID_2_" class="st0" d="M-4824.2-237.6h14.6v7.9h-14.6V-237.6z"/>
	</g>
	<g id="Group_561" transform="translate(1081.263 240.288)">
		<path id="Path_211" class="st1" d="M-4829.6-234.4l0.5-3.1h0.8l0.6,1.7l0.7-1.7h0.8l0.5,3.1h-0.8l-0.2-1.8l-0.8,1.8h-0.3l-0.7-1.8
			l-0.3,1.8H-4829.6z"/>
		<path id="Path_212" class="st1" d="M-4823.2-235h-1.1l-0.2,0.5h-0.9l1.2-3.1h0.9l1.2,3.1h-0.9L-4823.2-235z M-4823.4-235.6l-0.3-1
			l-0.3,1H-4823.4z"/>
		<path id="Path_213" class="st1" d="M-4820.9-236.1l-1-1.5h1l0.5,0.8l0.5-0.8h1l-1,1.5l1.2,1.7h-1l-0.7-1l-0.7,1h-1L-4820.9-236.1z
			"/>
	</g>
</g>
</svg>
