<?xml version="1.0" encoding="utf-8"?>
<!-- Generator: Adobe Illustrator 22.1.0, SVG Export Plug-In . SVG Version: 6.00 Build 0)  -->
<svg version="1.1" id="Layer_1" xmlns="http://www.w3.org/2000/svg" xmlns:xlink="http://www.w3.org/1999/xlink" x="0px" y="0px"
	 viewBox="0 0 20 13.4" style="enable-background:new 0 0 20 13.4;" xml:space="preserve">
<style type="text/css">
	.st0{fill:#5C4D94;}
</style>
<g id="Symbol_20_1" transform="translate(3756)">
	<ellipse id="XMLID_1_" class="st0" cx="-3746" cy="6.7" rx="2.3" ry="2.3"/>
	<path id="Path_214" class="st0" d="M-3752.2,1.6l1.5-1.5c0.1-0.1,0.3-0.1,0.5,0c0.1,0.1,0.1,0.3,0,0.5l-0.9,0.9h13.7
		c0.8,0,1.4,0.6,1.4,1.4v7.7c0,0.8-0.6,1.4-1.4,1.4h-0.9c-0.2,0-0.3-0.2-0.3-0.4c0-0.2,0.1-0.3,0.3-0.3h0.9c0.4,0,0.7-0.3,0.7-0.7
		V2.9c0-0.4-0.3-0.7-0.7-0.7h-13.7l0.9,0.9c0.1,0.1,0.1,0.3,0,0.5s-0.3,0.1-0.5,0l-1.5-1.5c-0.1-0.1-0.1-0.1-0.1-0.2
		C-3752.3,1.7-3752.2,1.6-3752.2,1.6z M-3739.8,11.9c0.1-0.1,0.1-0.3,0-0.5l-1.5-1.5c-0.1-0.1-0.3-0.1-0.5,0
		c-0.1,0.1-0.1,0.1-0.1,0.2c0,0.1,0,0.2,0.1,0.2l0.9,0.9h-13.7c-0.4,0-0.7-0.3-0.7-0.7V2.9c0-0.4,0.3-0.7,0.7-0.7h0.9
		c0.2,0,0.3-0.2,0.3-0.4c0-0.2-0.1-0.3-0.3-0.3h-0.9c-0.8,0-1.4,0.6-1.4,1.4v7.7c0,0.8,0.6,1.4,1.4,1.4h13.8l-0.9,0.9
		c-0.1,0.1-0.1,0.3,0,0.5s0.3,0.1,0.5,0L-3739.8,11.9z"/>
</g>
</svg>
