<?xml version="1.0" encoding="utf-8"?>
<!-- Generator: Adobe Illustrator 22.1.0, SVG Export Plug-In . SVG Version: 6.00 Build 0)  -->
<svg version="1.1" id="Layer_1" xmlns="http://www.w3.org/2000/svg" xmlns:xlink="http://www.w3.org/1999/xlink" x="0px" y="0px"
	 viewBox="0 0 60 59.3" style="enable-background:new 0 0 60 59.3;" xml:space="preserve">
<style type="text/css">
	.st0{fill:#5C4D94;}
</style>
<g transform="translate(6618 1338.749)">
	<path class="st0" d="M-6588.7-1292.4c0.7,2.6,2,5.5,2.3,7.2c0.7,5.2-6.5,7.8-9.4,3.6c-1.3-2-1.3-3.9-2.6-7.2
		c-3.6,1-5.9,2.6-8.5,2.3c-4.2-0.7-5.2-6.5-2.3-9.1c2-1.6,4.9-1.6,7.5-2.9c-1.1-3.9-2.4-7.7-3.9-11.4c-2.9,1-6.8,2.6-8.8,2.3
		c-2.3-1-3.6-2.6-3.6-4.9c0-4.9,5.5-5.2,9.1-6.5c-1-2.9-2.3-4.9-2.3-7.8c0.3-3,3.1-5.1,6.1-4.8c0.9,0.1,1.7,0.4,2.4,0.9
		c1.6,1,2.6,5.2,3.6,8.5l11.1-3.9c-1.3-4.2-3.6-8.1-0.7-11.1c2.3-2.3,6.2-1.6,8.1,0.7c1.6,2.3,1.6,4.9,2.6,7.2
		c2.9-1.3,6.5-3.3,9.4-2.3c2.3,0.7,3.6,3.9,2.9,5.9c-1.3,3.6-5.5,4.2-9.1,5.5l3.6,11.4c3.3-1,4.9-2.3,7.8-2.3c2.5,0,4.7,1.8,5.2,4.2
		c0.7,5.5-5.5,6.2-9.4,7.5c1.3,3.9,2.3,4.9,2.3,7.8c0,5.2-6.8,6.5-9.8,2.6c-1-1.3-1.3-3.9-2.3-6.8
		C-6577.6-1295.9-6588.7-1292-6588.7-1292.4z M-6580.9-1305.7l-3.9-11.4l-10.8,3.9l3.6,11.1L-6580.9-1305.7z"/>
</g>
</svg>
