<svg 
 xmlns="http://www.w3.org/2000/svg"
 xmlns:xlink="http://www.w3.org/1999/xlink"
 viewBox="0 0 30 30">
<path fill-rule="evenodd"  fill="rgb(255, 255, 255)"
 d="M22.935,14.346 L22.935,26.241 C22.935,26.663 22.601,27.000 22.183,27.000 C21.765,27.000 21.431,26.663 21.431,26.241 L21.431,14.352 C19.687,13.997 18.366,12.440 18.366,10.574 C18.366,8.708 19.687,7.150 21.431,6.796 L21.431,0.759 C21.431,0.337 21.765,-0.000 22.183,-0.000 C22.601,-0.000 22.935,0.337 22.935,0.759 L22.935,6.796 C24.685,7.150 26.000,8.702 26.000,10.568 C26.000,12.435 24.679,13.992 22.935,14.346 ZM22.183,8.241 C20.907,8.241 19.870,9.287 19.870,10.574 C19.870,11.861 20.907,12.907 22.183,12.907 C23.459,12.907 24.495,11.861 24.495,10.574 C24.495,9.287 23.459,8.241 22.183,8.241 ZM13.780,20.715 L13.780,26.235 C13.780,26.657 13.446,26.994 13.028,26.994 C12.610,26.994 12.276,26.657 12.276,26.235 L12.276,20.715 C10.531,20.361 9.211,18.804 9.211,16.937 C9.211,15.071 10.531,13.514 12.276,13.160 L12.276,0.759 C12.276,0.337 12.610,-0.000 13.028,-0.000 C13.446,-0.000 13.780,0.337 13.780,0.759 L13.780,13.160 C15.530,13.514 16.845,15.077 16.845,16.937 C16.845,18.804 15.524,20.361 13.780,20.715 ZM13.028,14.605 C11.752,14.605 10.715,15.650 10.715,16.937 C10.715,18.225 11.752,19.270 13.028,19.270 C14.304,19.270 15.340,18.225 15.340,16.937 C15.340,15.650 14.304,14.605 13.028,14.605 ZM4.569,14.346 L4.569,26.235 C4.569,26.657 4.235,26.994 3.817,26.994 C3.399,26.994 3.065,26.657 3.065,26.235 L3.065,14.352 C1.320,13.997 -0.000,12.440 -0.000,10.574 C-0.000,8.708 1.320,7.150 3.065,6.796 L3.065,0.759 C3.065,0.337 3.399,-0.000 3.817,-0.000 C4.235,-0.000 4.569,0.337 4.569,0.759 L4.569,6.796 C6.313,7.150 7.634,8.702 7.634,10.568 C7.634,12.435 6.313,13.992 4.569,14.346 ZM3.817,8.241 C2.541,8.241 1.504,9.287 1.504,10.574 C1.504,11.861 2.541,12.907 3.817,12.907 C5.087,12.907 6.129,11.861 6.129,10.574 C6.129,9.287 5.093,8.241 3.817,8.241 Z"/>
</svg>