<?xml version="1.0" encoding="utf-8"?>
<!-- Generator: Adobe Illustrator 22.1.0, SVG Export Plug-In . SVG Version: 6.00 Build 0)  -->
<svg version="1.1" id="Layer_1" xmlns="http://www.w3.org/2000/svg" xmlns:xlink="http://www.w3.org/1999/xlink" x="0px" y="0px"
	 viewBox="0 0 60 60" style="enable-background:new 0 0 60 60;" xml:space="preserve">
<style type="text/css">
	.st0{fill:#D3CCFF;}
	.st1{fill:#8795A2;}
	.st2{fill:#5C4D94;}
</style>
<path class="st0" d="M30,0C13.4,0,0,13.4,0,30s13.4,30,30,30c16.6,0,30-13.4,30-30C60,13.4,46.6,0,30,0z M30,42.8
	c-7.1,0-12.9-5.8-12.9-12.9S22.9,17.1,30,17.1c7.1,0,12.9,5.8,12.9,12.9C42.8,37.1,37.1,42.8,30,42.8z"/>
<path class="st1" d="M18.9,2.2c2.3-0.9,4.6-1.5,7-1.9C23.5,0.6,21.1,1.3,18.9,2.2z"/>
<g transform="translate(6939 1198)">
	<path class="st2" d="M-6896.2-1168c0,1.5-0.3,3-0.8,4.4l15.9,6.3c2.9-7.7,2.6-16.2-0.9-23.6l-15.5,7.3
		C-6896.6-1171.9-6896.2-1170-6896.2-1168z"/>
	<path class="st2" d="M-6909-1138c4.7,0,9.3-1.1,13.5-3.2l-7.5-15.4c-3.2,1.7-7,2-10.4,0.7l-6.1,16
		C-6916.1-1138.6-6912.6-1138-6909-1138z"/>
	<path class="st2" d="M-6921.8-1168c0-1.5,0.3-3,0.8-4.5l-16.3-5.4c-2.7,7.9-2.1,16.6,1.8,24l15.1-8.1
		C-6921.3-1163.9-6921.8-1165.9-6921.8-1168z"/>
	<path class="st2" d="M-6909-1198c-4.6,0-9.2,1.1-13.3,3.1l7.8,15.3c3.1-1.5,6.7-1.6,10-0.4l5.8-16.2
		C-6902.1-1197.4-6905.5-1198-6909-1198z"/>
</g>
</svg>
