<?xml version="1.0" encoding="utf-8"?>
<!-- Generator: Adobe Illustrator 22.1.0, SVG Export Plug-In . SVG Version: 6.00 Build 0)  -->
<svg version="1.1" id="Layer_1" xmlns="http://www.w3.org/2000/svg" xmlns:xlink="http://www.w3.org/1999/xlink" x="0px" y="0px"
	 viewBox="0 0 109 129" style="enable-background:new 0 0 109 129;" xml:space="preserve">
<style type="text/css">
	.st0{fill:#FFFFFF;}
</style>
<title>menu-logo</title>
<desc>Created with Sketch.</desc>
<g>
	<g>
		<path class="st0" d="M68.2,31.2h3l2.3,3.9V37h1.1h10H85v-1.3v-0.6h0c0,0-1.4,0-2.5-1.8c0,0,0,0,0,0c0,0,0-0.1-0.1-0.1
			c-0.1-0.1-0.1-0.2-0.2-0.3c0,0,0,0,0,0l-1-1.7h0l-4-7h-9V31.2z"/>
		<path class="st0" d="M67.3,61.7C67.3,61.7,67.3,61.7,67.3,61.7l0-1.8h-8.7v1.8c0,0,0,0,0,0c0,3.2-2,3.7-3.5,3.7l3.5,0v0h-3.5v1.9
			h15.7v-1.9h-3.5v0l3.5,0C69.3,65.5,67.3,64.9,67.3,61.7z"/>
		<path class="st0" d="M85,47.6v-1.3h-0.4h-10h-1.1v1.9L71.2,52h-3.9V22.8v-1.2c0,0,0,0,0,0c0-2.2,0.6-3.7,2-3.7h0v0v-1.9h-2v0h-8.7
			v0h-2v1.9v0h0c1.5,0,2,1.6,2,3.7c0,0,0,0,0,0v2.7H47v-2.7c0,0,0,0,0,0c0-2.2,0.6-3.7,2-3.7h0v0v-1.9h-2v0h-8.7v0h-2v1.9v0h0
			c1.5,0,2,1.6,2,3.7c0,0,0,0,0,0v2.7h-9.9l-0.8,1.3l-3.3,5.6l-2.6,4.5h0l-3.4,5.9l3.4,5.9h0l2.6,4.5l3.3,5.7l0.8,1.3h9v-7h-3
			l-6-10.4l6-10.4h24.2v6.9H47v-6h-8.7v29.6c0,0,0,0,0,0c0,3.2-2,3.7-3.5,3.7l3.5,0v0h-3.5v1.9h15.7v-1.9H47v0l3.5,0
			c-1.5,0-3.5-0.6-3.5-3.7c0,0,0,0,0,0V59h30.3l4-7h0l1-1.7c0,0,0,0,0,0c0.1-0.1,0.1-0.2,0.2-0.3c0,0,0-0.1,0.1-0.1
			c0,0,0.1-0.1,0.1-0.1c1.1-1.7,2.4-1.7,2.4-1.7h0V47.6z M58.6,52H47v-6.9h11.6V52z"/>
	</g>
	<g>
		<path class="st0" d="M20.8,112.9v-1.6c2.5,0,3.7-0.8,3.7-2.3v-7.6c-0.3-0.1-0.6-0.2-1-0.3c-0.4-0.1-1-0.1-1.6-0.1h-4.5
			c-0.9,0-1.8,0.2-2.5,0.5v7.6c0,1.5,1.1,2.3,3.4,2.3v1.6H4.9v-1.6c2.5,0,3.8-0.8,3.8-2.3V92.5c0-2-1.3-3-3.8-3v-1.7h13.4v1.7
			c-2.3,0-3.4,1-3.4,3v6.2c0.4,0.1,0.8,0.2,1.1,0.3c0.4,0.1,0.8,0.1,1.3,0.1h4.5c1.3,0,2.2-0.1,2.6-0.3v-6.2c0-2-1.2-3-3.7-3v-1.7
			h13.3v1.7c-2.3,0-3.4,1-3.4,3V109c0,1.5,1.1,2.3,3.4,2.3v1.6H20.8z"/>
		<path class="st0" d="M50.1,109.5c-0.3,0.7-0.7,1.3-1.2,1.9c-0.5,0.5-1,0.9-1.6,1.3c-0.6,0.3-1.2,0.6-1.9,0.7
			c-0.7,0.2-1.3,0.2-1.9,0.2c-1.1,0-2.2-0.2-3.1-0.5c-0.9-0.4-1.8-0.9-2.5-1.5c-0.7-0.7-1.2-1.5-1.6-2.5c-0.4-1-0.6-2.2-0.6-3.4
			c0-2.8,0.8-5,2.4-6.5c1.6-1.5,3.8-2.3,6.6-2.3c0.6,0,1.2,0.1,1.8,0.3c0.6,0.2,1.1,0.4,1.6,0.8c0.5,0.3,0.8,0.7,1.1,1.2
			c0.3,0.5,0.4,1,0.4,1.5c0,0.6-0.2,1-0.7,1.4c-0.4,0.4-1,0.6-1.5,0.6c-1.2,0-1.8-0.6-1.8-1.9c0-0.1,0-0.3,0.1-0.5
			c0.1-0.2,0.1-0.4,0.1-0.6c0-0.4-0.2-0.7-0.6-0.9c-0.4-0.2-0.8-0.3-1.2-0.3c-0.7,0-1.2,0.2-1.6,0.5c-0.4,0.4-0.7,0.8-0.9,1.4
			c-0.2,0.6-0.4,1.2-0.5,1.9c-0.1,0.7-0.1,1.4-0.1,2.1c0,0.9,0.1,1.8,0.2,2.6c0.1,0.8,0.3,1.5,0.6,2.1c0.3,0.6,0.7,1.1,1.2,1.4
			c0.5,0.4,1.1,0.5,1.9,0.5c1.6,0,2.8-0.8,3.8-2.3L50.1,109.5z"/>
		<path class="st0" d="M68.7,111c-0.2,0.8-0.7,1.4-1.5,1.7c-0.8,0.4-1.6,0.6-2.4,0.6c-0.7,0-1.4-0.2-2.1-0.5
			c-0.7-0.4-1.2-0.9-1.4-1.6c-0.8,0.7-1.6,1.2-2.3,1.6s-1.5,0.6-2.5,0.6c-1.4,0-2.5-0.3-3.4-0.9s-1.3-1.5-1.3-2.7
			c0-0.9,0.2-1.7,0.6-2.4c0.4-0.7,0.9-1.3,1.7-1.8s1.7-0.9,2.8-1.3c1.1-0.4,2.5-0.7,4-0.9v-1.2c0-1.1-0.1-2-0.3-2.5
			c-0.2-0.6-0.7-0.8-1.6-0.8c-0.8,0-1.5,0.1-2.1,0.3c-0.6,0.2-0.9,0.7-0.9,1.3c0.1,0.1,0.2,0.3,0.2,0.5c0.1,0.2,0.1,0.4,0.1,0.6
			c0,1.1-0.7,1.7-2.1,1.7c-1.1,0-1.6-0.6-1.6-1.9c0-0.6,0.1-1.2,0.4-1.7c0.3-0.5,0.7-1,1.2-1.4c0.6-0.4,1.3-0.7,2.2-1
			c0.9-0.2,2-0.4,3.2-0.4c0.8,0,1.5,0.1,2.3,0.3c0.7,0.2,1.4,0.5,2,0.9c0.6,0.4,1,0.9,1.4,1.6c0.4,0.6,0.5,1.4,0.5,2.4v7.9
			c0,0.8,0.3,1.1,1,1.1c0.2,0,0.4,0,0.5-0.1c0.2-0.1,0.4-0.2,0.6-0.3L68.7,111z M61,105c-1.5,0.2-2.5,0.6-3.2,1.1
			c-0.7,0.6-1,1.5-1,2.7c0,0.8,0.1,1.4,0.4,1.8c0.2,0.4,0.7,0.6,1.4,0.6c0.7,0,1.2-0.1,1.5-0.3c0.3-0.2,0.6-0.5,0.7-0.8
			c0.1-0.3,0.2-0.7,0.2-1.2s0-0.9,0.1-1.3V105z"/>
		<path class="st0" d="M80,102.2c-0.5-1.3-1.1-2.2-1.9-2.9c-0.8-0.6-1.5-0.9-2.3-0.9c-0.4,0-0.7,0-1.1,0.1c-0.4,0.1-0.7,0.2-1,0.4
			c-0.3,0.2-0.5,0.4-0.7,0.7c-0.2,0.3-0.3,0.6-0.3,1c0,0.4,0.2,0.7,0.6,1c0.4,0.3,0.8,0.5,1.4,0.7c0.5,0.2,1.1,0.4,1.6,0.5
			c0.6,0.2,1,0.3,1.4,0.4c0.6,0.2,1.1,0.4,1.6,0.6c0.5,0.2,1,0.5,1.4,0.9c0.4,0.3,0.8,0.8,1,1.3s0.4,1.1,0.4,1.9
			c0,0.9-0.2,1.6-0.5,2.3c-0.3,0.7-0.7,1.3-1.3,1.8c-0.5,0.5-1.2,0.9-1.9,1.1c-0.7,0.3-1.5,0.4-2.3,0.4c-0.8,0-1.5-0.1-1.9-0.2
			c-0.5-0.1-0.9-0.4-1.3-0.7c-0.3,0.2-0.7,0.4-1.1,0.5c-0.4,0.1-1,0.2-1.7,0.3c-0.2-0.9-0.2-1.9-0.3-3c0-1.1-0.1-2.2-0.1-3.3h1.8
			c0.3,0.9,0.5,1.7,0.8,2.2c0.3,0.6,0.6,1.1,0.9,1.4c0.3,0.4,0.7,0.6,1.2,0.7c0.5,0.1,1,0.2,1.6,0.2c1.9,0,2.8-0.6,2.9-1.8
			c0-0.7-0.2-1.2-0.7-1.6c-0.4-0.4-1-0.7-1.6-0.9s-1.4-0.5-2.2-0.7c-0.8-0.2-1.5-0.5-2.2-0.8c-0.7-0.4-1.2-0.8-1.6-1.4
			c-0.4-0.6-0.7-1.4-0.7-2.4c0-1.4,0.5-2.6,1.5-3.6c1-1,2.5-1.5,4.4-1.5c0.6,0,1.1,0.1,1.6,0.2c0.5,0.1,1,0.3,1.5,0.6
			c0.2-0.1,0.4-0.3,0.7-0.4c0.3-0.2,0.7-0.3,1.2-0.3c0.3,1,0.4,1.9,0.5,2.7s0.1,1.7,0.1,2.6H80z"/>
		<path class="st0" d="M94.6,112.9v-1.6c1.6,0,2.4-0.4,2.4-1.3v-5.6c0-1.6-0.2-2.9-0.7-3.7c-0.4-0.8-1.2-1.2-2.2-1.2
			c-1.1,0-2,0.3-2.6,0.9c-0.6,0.6-1,1.5-1.2,2.6v6.6c0,1.1,0.9,1.6,2.6,1.6v1.6H83v-1.6c1.6,0,2.4-0.5,2.4-1.6V92.5
			c0-1.8-0.7-2.7-2.2-2.7v-1.4l7.2-1.2v12.3c0.6-0.8,1.4-1.4,2.4-1.9c1-0.4,2-0.6,3-0.6c0.8,0,1.6,0.1,2.3,0.3
			c0.7,0.2,1.4,0.5,1.9,0.9c0.6,0.4,1,0.9,1.4,1.6c0.3,0.6,0.5,1.3,0.5,2.2v8.1c0,0.9,0.8,1.3,2.5,1.3v1.6H94.6z"/>
	</g>
</g>
</svg>
