<?xml version="1.0" encoding="utf-8"?>
<!-- Generator: Adobe Illustrator 22.1.0, SVG Export Plug-In . SVG Version: 6.00 Build 0)  -->
<svg version="1.1" id="Layer_1" xmlns="http://www.w3.org/2000/svg" xmlns:xlink="http://www.w3.org/1999/xlink" x="0px" y="0px"
	 viewBox="0 0 39.9 40" style="enable-background:new 0 0 39.9 40;" xml:space="preserve">
<style type="text/css">
	.st0{fill:none;}
	.st1{fill:#D3CCFF;}
	.st2{fill:#5C4D94;}
</style>
<title>ticket-unmined</title>
<g id="Layer_2_1_">
	<g id="Layer_1-2">
		<g id="Symbol_6_1">
			<g id="Group_445">
				<g id="_Group_">
					<rect id="_Path_" class="st0" width="39.9" height="39.9"/>
				</g>
				<g id="_Group_2">
					<path id="_Path_2" class="st1" d="M12.4,39.9c0-4.2,3.4-7.6,7.6-7.6c4.2,0,7.6,3.4,7.6,7.6V40h6.7V0h-6.7
						c0,4.2-3.4,7.6-7.6,7.6c-4.2,0-7.6-3.4-7.6-7.6c0,0,0,0,0,0H5.7v39.9L12.4,39.9C12.4,39.9,12.4,39.9,12.4,39.9z"/>
				</g>
			</g>
			<path id="Path_187" class="st2" d="M15.7,24.8l-1.4,1.6l-0.2-0.1l0,0l0,0l0,0l0,0l0,0l0,0l0,0l0,0l0,0l0,0l0,0l0,0l0,0l0,0l0,0
				l0,0l0,0l0,0l0,0l0,0l0,0l0,0l0,0l0,0l0,0l0,0l0,0l0,0l0,0l0,0l0,0c-0.1-0.1-0.2-0.2-0.3-0.4l0,0l-0.1-0.1l1.7-1.3
				C15.6,24.7,15.7,24.8,15.7,24.8C15.4,24.5,15.6,24.7,15.7,24.8z M13.7,21.6l-2.1,0.5c0.1,0.4,0.2,0.7,0.4,1.1l0,0l0,0l0,0
				l0.1,0.1l0,0l0,0l0,0l1.9-0.9C13.9,22.2,13.8,21.9,13.7,21.6L13.7,21.6z M24.7,15.7C24.7,15.7,24.8,15.7,24.7,15.7l1.7-1.3l0-0.1
				l0,0l0-0.1l0,0l0,0l0,0l0,0l0,0c-0.3-0.3-0.6-0.6-0.9-0.8l-1.3,1.7C24.4,15.3,24.6,15.5,24.7,15.7L24.7,15.7z M28.5,19.8
				L28.5,19.8L28.5,19.8L28.5,19.8L28.5,19.8L28.5,19.8v-0.2l0,0c0-0.1,0-0.3,0-0.4l-2.1,0.2c0,0.4,0,0.9,0,1.3l2.1,0.2
				C28.5,20.4,28.5,20.1,28.5,19.8L28.5,19.8z M26.1,18l2-0.7c-0.1-0.3-0.2-0.6-0.3-0.9l0,0c-0.1-0.2-0.2-0.4-0.3-0.5L25.6,17
				C25.8,17.3,26,17.7,26.1,18z M15.7,27.4l0.5,0.2l0,0l0,0l0,0l0,0l0,0l0,0l0,0h0l0,0L17,28l0.7-2c-0.4-0.1-0.8-0.3-1.2-0.5
				L15.7,27.4z M25.7,23l1.9,1c0.1-0.2,0.2-0.5,0.4-0.8l0,0l0,0l0,0l0,0l0,0c0,0,0,0,0-0.1l0,0c0,0,0.1-0.1,0.1-0.1l0,0
				c0-0.1,0.1-0.3,0.1-0.4L26.1,22C26,22.3,25.8,22.7,25.7,23L25.7,23z M24.3,24.8L24,25l1.4,1.6l0.3-0.2l0,0l0,0l0,0
				c0.3-0.3,0.6-0.6,0.9-0.9L24.9,24C24.7,24.3,24.5,24.5,24.3,24.8L24.3,24.8z M21.8,26.2l0.6,2.1c0.6-0.2,1.1-0.4,1.6-0.7l-1-1.9
				C22.6,25.9,22.2,26,21.8,26.2L21.8,26.2z M19.2,26.4L19,28.5c0.6,0.1,1.1,0.1,1.7,0l-0.2-2.1C20.1,26.4,19.7,26.4,19.2,26.4
				L19.2,26.4z M23.8,12.3c-0.5-0.3-1-0.4-1.6-0.6l0,0l-0.6,2.1c0.4,0.1,0.8,0.3,1.2,0.5L23.8,12.3z M20,13.1h0.2v-1.7H20
				c-1.3,0-2.5,0.3-3.7,0.8l0,0l-0.1,0.1c-0.1,0.1-0.2,0.1-0.3,0.2l-0.1,0.1c-0.2,0.1-0.4,0.3-0.6,0.4L15,13c0,0-0.1,0.1-0.1,0.1
				l-0.2,0.2c0,0-0.1,0.1-0.1,0.1l-0.2,0.2l0,0l0,0l-0.1,0.1l-0.2,0.2l-0.1,0.1c-0.4,0.4-0.7,0.9-1,1.4c0,0,0,0,0,0.1l0,0l-0.1,0.1
				c-0.1,0.1-0.1,0.3-0.2,0.4c0,0,0,0.1,0,0.1l0,0c0,0,0,0,0,0.1l0,0l-0.1,0.1l-0.1,0.1l0,0c-0.3,0.9-0.5,1.9-0.5,2.9v0H14v0
				c0-0.7,0.1-1.5,0.4-2.2c0.1-0.3,0.2-0.6,0.4-0.9l0,0l0.1-0.2c0.3-0.4,0.6-0.9,1-1.2c0.1-0.1,0.2-0.2,0.3-0.3l0-0.1
				c0.4-0.3,0.8-0.6,1.2-0.8h0C18.3,13.3,19.2,13.1,20,13.1L20,13.1z"/>
		</g>
	</g>
</g>
</svg>
