<?xml version="1.0" encoding="utf-8"?>
<!-- Generator: Adobe Illustrator 22.1.0, SVG Export Plug-In . SVG Version: 6.00 Build 0)  -->
<svg version="1.1" id="Layer_1" xmlns="http://www.w3.org/2000/svg" xmlns:xlink="http://www.w3.org/1999/xlink" x="0px" y="0px"
	 viewBox="0 0 40 40" style="enable-background:new 0 0 40 40;" xml:space="preserve">
<style type="text/css">
	.st0{fill:none;}
	.st1{fill:#D3CCFF;}
	.st2{fill:#5C4D94;}
</style>
<title>ticket-immature</title>
<g id="Layer_2_1_">
	<g id="Layer_1-2">
		<g id="Symbol_10_1">
			<g id="_Group_">
				<rect id="_Path_" class="st0" width="40" height="40"/>
			</g>
			<g id="_Group_2">
				<path id="_Path_2" class="st1" d="M12.4,39.9c0-4.2,3.4-7.6,7.6-7.6s7.6,3.4,7.6,7.6l0,0l0,0h6.7V0h-6.7c0,4.2-3.4,7.6-7.6,7.6
					l0,0c-4.2,0-7.6-3.4-7.6-7.6H5.7v40L12.4,39.9C12.4,40,12.4,40,12.4,39.9z"/>
			</g>
			<circle id="Ellipse_12" class="st2" cx="18.3" cy="13.6" r="2"/>
			<circle id="Ellipse_13" class="st2" cx="19" cy="19.8" r="3.2"/>
			<circle id="Ellipse_14" class="st2" cx="24.9" cy="21.8" r="2.1"/>
			<circle id="Ellipse_15" class="st2" cx="25.6" cy="25.2" r="0.9"/>
			<circle id="Ellipse_16" class="st2" cx="14.4" cy="16.4" r="0.9"/>
			<circle id="Ellipse_17" class="st2" cx="21.5" cy="25.4" r="1.5"/>
			<circle id="Ellipse_18" class="st2" cx="14.7" cy="23.4" r="1.1"/>
			<circle id="Ellipse_19" class="st2" cx="23.3" cy="16.7" r="1.1"/>
			<circle id="Ellipse_20" class="st2" cx="17.4" cy="24.7" r="1"/>
			<circle id="Ellipse_21" class="st2" cx="13.8" cy="20.4" r="0.7"/>
			<circle id="Ellipse_22" class="st2" cx="18.7" cy="27.7" r="0.7"/>
			<circle id="Ellipse_23" class="st2" cx="22.5" cy="13" r="0.7"/>
		</g>
	</g>
</g>
</svg>
