<?xml version="1.0" encoding="utf-8"?>
<!-- Generator: Adobe Illustrator 22.1.0, SVG Export Plug-In . SVG Version: 6.00 Build 0)  -->
<svg version="1.1" id="Layer_1" xmlns="http://www.w3.org/2000/svg" xmlns:xlink="http://www.w3.org/1999/xlink" x="0px" y="0px"
	 viewBox="0 0 40 40" style="enable-background:new 0 0 40 40;" xml:space="preserve">
<style type="text/css">
	.st0{fill:#5C4D94;}
</style>
<g id="XMLID_3546_">
	<path class="st0" d="M22.7,40v-4.3c2.4-0.4,4.6-1.4,6.6-2.7l3,3l3.8-3.8l-3-2.9c1.4-1.9,2.3-4.2,2.7-6.5H40v-5.3h-4.3
		c-0.4-2.6-1.4-4.7-2.7-6.6l3-3l-3.8-3.8l-3,3c-1.9-1.4-4.2-2.3-6.6-2.7V0h-5.3v4.3c-2.6,0.4-4.7,1.4-6.6,2.7l-3-3L3.9,7.8l3,3
		c-1.4,1.9-2.3,4-2.7,6.6H0v5.3h4.2c0.4,2.3,1.4,4.6,2.7,6.5l-3,3L7.7,36l3-3c1.9,1.4,4.1,2.3,6.6,2.7V40H22.7z M9.3,20
		c0-4.9,3.3-9.1,8-10.3V20h5.3V9.7c4.5,1.2,8,5.3,8,10.3c0,5.9-4.8,10.6-10.7,10.6C14.1,30.6,9.3,25.9,9.3,20z"/>
</g>
</svg>
