<?xml version="1.0" encoding="utf-8"?>
<!-- Generator: Adobe Illustrator 22.1.0, SVG Export Plug-In . SVG Version: 6.00 Build 0)  -->
<svg version="1.1" id="Layer_1" xmlns="http://www.w3.org/2000/svg" xmlns:xlink="http://www.w3.org/1999/xlink" x="0px" y="0px"
	 viewBox="0 0 24 24" style="enable-background:new 0 0 24 24;" xml:space="preserve">
<style type="text/css">
	.st0{fill:#5C4D94;}
	.st1{fill:#FFFFFF;}
</style>
<g>
	<path id="XMLID_43_" class="st0" d="M17.1,22.9c2.9-1.3,5.1-3.8,6.2-6.8l-6.4-2.3c-0.5,1.3-1.5,2.4-2.8,3c0.1,0,0.1,0,0.2-0.1
		L17.1,22.9z"/>
	<path id="XMLID_39_" class="st0" d="M1.1,17.1c1.3,2.9,3.8,5.1,6.8,6.2l0.7-1.9l1.6-4.6l0,0l0,0l0,0c-1.3-0.5-2.4-1.5-3-2.8
		c0,0.1,0,0.1,0.1,0.2L1.1,17.1z"/>
	<path id="XMLID_36_" class="st0" d="M22.9,6.9c-1.3-2.9-3.8-5.1-6.7-6.2L14.9,4l-1.1,3.2l0,0c1.3,0.5,2.4,1.5,3,2.8
		c0-0.1,0-0.1-0.1-0.2L22.9,6.9z"/>
	<path id="XMLID_34_" class="st0" d="M6.9,1.1C4.1,2.5,1.8,4.9,0.7,7.9l2,0.7l4.4,1.6c0.5-1.3,1.5-2.4,2.8-3c-0.1,0-0.1,0-0.2,0.1
		L6.9,1.1z"/>
	<path id="XMLID_31_" class="st1" d="M0.1,13.2c0,0,0,0.1,0,0.1c0,0.1,0,0.1,0,0.2c0,0,0,0,0,0c0.1,1,0.4,1.9,0.7,2.8c0,0,0,0,0,0
		c0,0.1,0.1,0.2,0.1,0.2c0,0,0,0.1,0.1,0.1c0,0,0,0.1,0.1,0.1c0,0,0,0.1,0,0.1l0,0l6.2-2.9c0-0.1,0-0.1-0.1-0.2c0,0,0,0,0,0
		c0-0.1-0.1-0.1-0.1-0.2c0,0,0,0,0-0.1c0,0,0-0.1-0.1-0.1c0,0,0-0.1,0-0.1c0,0,0-0.1,0-0.1c0,0,0-0.1,0-0.1c0-0.1,0-0.1,0-0.2
		c0,0,0,0,0,0c-0.1-0.3-0.1-0.7-0.1-1c0-0.3,0-0.5,0.1-0.8v0c0-0.1,0-0.1,0-0.2c0,0,0,0,0,0c0-0.1,0-0.1,0-0.2c0,0,0-0.1,0-0.1
		c0,0,0-0.1,0-0.1c0,0,0-0.1,0-0.1c0,0,0,0,0-0.1c0,0,0-0.1,0-0.1L2.7,8.6l-2-0.8l0,0c-0.1,0.3-0.2,0.6-0.3,1c0,0,0,0,0,0
		c0,0.1,0,0.1-0.1,0.2c0,0,0,0.1,0,0.1c0,0.1,0,0.1,0,0.2c0,0.1,0,0.1,0,0.2c0,0,0,0.1,0,0.1C0.1,10.4,0,11.2,0,12
		C0,12.4,0,12.8,0.1,13.2C0.1,13.2,0.1,13.2,0.1,13.2z"/>
	<path id="XMLID_30_" class="st1" d="M10.2,16.8l-1.6,4.6l-0.7,1.9l0,0l0,0c0.1,0,0.2,0.1,0.3,0.1c0,0,0,0,0.1,0
		c0.1,0,0.2,0.1,0.2,0.1c0,0,0,0,0.1,0c0.1,0,0.2,0.1,0.3,0.1c0,0,0,0,0,0c0.1,0,0.1,0,0.2,0.1c0,0,0.1,0,0.1,0c0.1,0,0.1,0,0.2,0
		c0.1,0,0.1,0,0.2,0c0,0,0.1,0,0.1,0c0.8,0.2,1.6,0.2,2.4,0.2c0.4,0,0.8,0,1.2-0.1c0,0,0.1,0,0.1,0c0,0,0.1,0,0.1,0
		c0.1,0,0.1,0,0.2,0c0,0,0,0,0,0c1-0.1,1.9-0.4,2.8-0.7c0,0,0,0,0,0c0.1,0,0.2-0.1,0.2-0.1c0,0,0.1,0,0.1-0.1c0,0,0.1,0,0.1-0.1
		c0,0,0.1,0,0.1,0v0l-2.9-6.2c-0.1,0-0.1,0-0.2,0.1c0,0,0,0,0,0c-0.1,0-0.1,0.1-0.2,0.1c0,0,0,0-0.1,0c0,0-0.1,0-0.1,0
		c0,0-0.1,0-0.1,0c0,0-0.1,0-0.1,0c0,0-0.1,0-0.1,0c-0.1,0-0.1,0-0.2,0c0,0,0,0-0.1,0c-0.3,0.1-0.7,0.1-1,0.1c-0.3,0-0.5,0-0.8-0.1
		l0,0c-0.1,0-0.1,0-0.2,0c0,0,0,0,0,0c-0.1,0-0.1,0-0.2,0c0,0-0.1,0-0.1,0c0,0-0.1,0-0.1,0c0,0-0.1,0-0.1,0c0,0,0,0-0.1,0
		C10.3,16.9,10.3,16.9,10.2,16.8L10.2,16.8L10.2,16.8L10.2,16.8L10.2,16.8z"/>
	<path id="XMLID_29_" class="st1" d="M14.9,4l1.2-3.2v0l0,0c0,0,0,0,0,0c0,0,0,0,0,0c-0.1,0-0.2-0.1-0.2-0.1c0,0-0.1,0-0.1,0
		c-0.1,0-0.1,0-0.2-0.1c0,0-0.1,0-0.1,0c-0.1,0-0.2-0.1-0.3-0.1c0,0,0,0,0,0c-0.1,0-0.1,0-0.2-0.1c0,0-0.1,0-0.1,0
		c-0.1,0-0.1,0-0.2,0s-0.1,0-0.2,0c0,0-0.1,0-0.1,0C13.6,0.1,12.8,0,12,0c-0.4,0-0.8,0-1.2,0.1c0,0-0.1,0-0.1,0c0,0-0.1,0-0.1,0
		c-0.1,0-0.1,0-0.2,0c0,0,0,0,0,0c-1,0.1-1.9,0.4-2.8,0.7c0,0,0,0,0,0C7.4,0.9,7.4,0.9,7.3,1c0,0-0.1,0-0.1,0.1c0,0-0.1,0-0.1,0.1
		c0,0-0.1,0-0.1,0l0,0l2.9,6.2c0.1,0,0.1,0,0.2-0.1c0,0,0,0,0,0c0.1,0,0.1-0.1,0.2-0.1c0,0,0,0,0.1,0c0.1,0,0.1,0,0.1,0
		c0,0,0.1,0,0.1,0c0.1,0,0.1,0,0.2,0c0,0,0,0,0.1,0c0.1,0,0.1,0,0.2,0c0,0,0,0,0,0c0.3-0.1,0.7-0.1,1-0.1c0.3,0,0.5,0,0.8,0.1h0
		c0.1,0,0.1,0,0.2,0c0,0,0,0,0,0c0.1,0,0.1,0,0.2,0c0,0,0,0,0.1,0c0,0,0.1,0,0.1,0c0,0,0.1,0,0.1,0c0,0,0.1,0,0.1,0c0,0,0.1,0,0.1,0
		l0,0l0,0L14.9,4z"/>
	<path id="XMLID_28_" class="st1" d="M23.3,16.1L23.3,16.1L23.3,16.1C23.3,16.1,23.3,16.1,23.3,16.1C23.3,16.1,23.3,16,23.3,16.1
		L23.3,16.1c0-0.2,0.1-0.2,0.1-0.3v0c0,0,0-0.1,0-0.1c0,0,0,0,0,0c0-0.1,0-0.1,0-0.2l0,0c0,0,0-0.1,0-0.1h0c0-0.1,0.1-0.2,0.1-0.3h0
		c0-0.1,0,0,0,0c0,0,0,0,0,0c0-0.1,0-0.1,0.1-0.2c0,0,0-0.1,0-0.1c0-0.1,0-0.1,0-0.2c0,0,0-0.1,0-0.1c0,0,0-0.1,0-0.1
		c0.2-0.8,0.2-1.6,0.2-2.4c0-0.4,0-0.8-0.1-1.2c0,0,0-0.1,0-0.1c0,0,0-0.1,0-0.1c0-0.1,0-0.1,0-0.2c0,0,0,0,0,0
		c-0.1-1-0.4-1.9-0.7-2.8c0,0,0,0,0,0c0-0.1-0.1-0.2-0.1-0.2c0,0,0-0.1-0.1-0.1c0,0,0-0.1-0.1-0.1c0,0,0-0.1,0-0.1h0l-6.2,2.9
		c0,0.1,0,0.1,0.1,0.2c0,0,0,0,0,0c0,0.1,0.1,0.1,0.1,0.2c0,0,0,0,0,0.1c0,0,0,0.1,0.1,0.1c0,0,0,0.1,0,0.1c0,0,0,0.1,0,0.1
		c0,0,0,0.1,0,0.1c0,0.1,0,0.1,0,0.2c0,0,0,0,0,0c0.1,0.3,0.1,0.7,0.1,1c0,0.1,0,0.1,0,0.2c0,0,0,0.1,0,0.1c0,0.1,0,0.3,0,0.4
		c0,0,0,0,0,0c0,0,0,0.1,0,0.1v0c0,0.1,0,0.2,0,0.2c0,0,0,0,0,0c0,0.1,0,0.1,0,0.2c0,0,0,0,0,0.1c0,0.1,0,0.1,0,0.1c0,0,0,0.1,0,0.1
		c0,0,0,0.1,0,0.1c0,0,0,0.1,0,0.1l0,0l0,0l0,0L23.3,16.1L23.3,16.1z"/>
</g>
</svg>
