<svg 
 xmlns="http://www.w3.org/2000/svg"
 xmlns:xlink="http://www.w3.org/1999/xlink"
 viewBox="0 0 70 70">
<defs>
<linearGradient id="PSgrad_0" x1="0%" x2="58.779%" y1="80.902%" y2="0%">
  <stop offset="0%" stop-color="rgb(243,239,246)" stop-opacity="1" />
  <stop offset="100%" stop-color="rgb(125,105,134)" stop-opacity="1" />
</linearGradient>

</defs>
<path fill-rule="evenodd"  fill="rgb(163, 100, 219)"
 d="M65.977,35.409 L64.159,37.228 L64.164,37.233 L35.433,65.965 C31.422,69.976 24.931,70.011 20.963,66.043 L16.375,61.455 C15.520,60.599 15.391,59.253 16.069,58.235 C17.078,56.718 16.883,54.689 15.604,53.410 C14.326,52.132 12.297,51.937 10.780,52.946 C9.762,53.623 8.416,53.495 7.560,52.640 L2.972,48.052 C-0.995,44.084 -0.961,37.593 3.050,33.582 L31.782,4.851 L31.782,4.851 L33.600,3.032 C37.611,-0.979 44.101,-1.014 48.069,2.953 L52.656,7.540 C53.511,8.396 53.639,9.742 52.961,10.760 C51.952,12.277 52.147,14.306 53.426,15.584 C54.704,16.862 56.733,17.057 58.250,16.048 C59.267,15.370 60.614,15.498 61.469,16.354 L66.056,20.941 C70.023,24.908 69.988,31.399 65.977,35.409 ZM62.419,24.577 L59.114,21.272 C55.916,22.422 52.253,21.685 49.789,19.221 C47.324,16.756 46.587,13.093 47.737,9.895 L44.432,6.590 C42.448,4.607 39.203,4.624 37.197,6.630 L35.379,8.448 L35.380,8.449 L31.561,12.268 C32.554,13.261 32.545,14.880 31.541,15.884 C30.536,16.888 28.918,16.897 27.924,15.904 L15.922,27.906 C16.916,28.900 16.907,30.519 15.903,31.524 C14.899,32.528 13.279,32.537 12.285,31.543 L6.648,37.180 C4.643,39.186 4.625,42.431 6.609,44.415 L9.915,47.721 C13.113,46.571 16.776,47.309 19.241,49.774 C21.706,52.239 22.443,55.902 21.294,59.100 L24.600,62.406 C26.584,64.390 29.829,64.372 31.835,62.367 L33.653,60.548 L33.648,60.543 L37.467,56.724 C36.479,55.730 36.489,54.115 37.491,53.112 C38.494,52.109 40.109,52.100 41.103,53.088 L53.106,41.086 C52.112,40.092 52.121,38.473 53.125,37.469 C54.130,36.464 55.749,36.456 56.742,37.449 L62.380,31.812 C64.385,29.806 64.403,26.561 62.419,24.577 ZM46.810,34.790 C45.817,33.797 45.825,32.178 46.830,31.173 C47.834,30.169 49.453,30.160 50.447,31.153 C51.440,32.147 51.431,33.766 50.427,34.771 C49.423,35.775 47.803,35.784 46.810,34.790 ZM40.514,28.495 C39.521,27.501 39.530,25.882 40.534,24.878 C41.538,23.873 43.158,23.865 44.151,24.858 C45.145,25.851 45.136,27.471 44.132,28.475 C43.127,29.480 41.508,29.488 40.514,28.495 ZM34.219,22.199 C33.225,21.206 33.234,19.586 34.239,18.582 C35.243,17.578 36.862,17.569 37.856,18.562 C38.849,19.556 38.840,21.175 37.836,22.180 C36.832,23.184 35.212,23.193 34.219,22.199 ZM34.793,50.414 C33.789,51.418 32.169,51.427 31.175,50.433 C30.182,49.439 30.190,47.820 31.195,46.816 C32.199,45.811 33.819,45.802 34.812,46.796 C35.806,47.790 35.797,49.409 34.793,50.414 ZM24.879,44.136 C23.885,43.143 23.894,41.523 24.898,40.519 C25.902,39.514 27.522,39.506 28.516,40.499 C29.509,41.493 29.500,43.113 28.496,44.117 C27.492,45.121 25.872,45.130 24.879,44.136 ZM18.582,37.840 C17.588,36.846 17.597,35.226 18.601,34.222 C19.606,33.218 21.225,33.209 22.219,34.203 C23.212,35.196 23.204,36.816 22.199,37.820 C21.195,38.825 19.576,38.833 18.582,37.840 Z"/>
<path fill="url(#PSgrad_0)"
 d="M65.977,35.409 L64.159,37.228 L64.164,37.233 L35.433,65.965 C31.422,69.976 24.931,70.011 20.963,66.043 L16.375,61.455 C15.520,60.599 15.391,59.253 16.069,58.235 C17.078,56.718 16.883,54.689 15.604,53.410 C14.326,52.132 12.297,51.937 10.780,52.946 C9.762,53.623 8.416,53.495 7.560,52.640 L2.972,48.052 C-0.995,44.084 -0.961,37.593 3.050,33.582 L31.782,4.851 L31.782,4.851 L33.600,3.032 C37.611,-0.979 44.101,-1.014 48.069,2.953 L52.656,7.540 C53.511,8.396 53.639,9.742 52.961,10.760 C51.952,12.277 52.147,14.306 53.426,15.584 C54.704,16.862 56.733,17.057 58.250,16.048 C59.267,15.370 60.614,15.498 61.469,16.354 L66.056,20.941 C70.023,24.908 69.988,31.399 65.977,35.409 ZM62.419,24.577 L59.114,21.272 C55.916,22.422 52.253,21.685 49.789,19.221 C47.324,16.756 46.587,13.093 47.737,9.895 L44.432,6.590 C42.448,4.607 39.203,4.624 37.197,6.630 L35.379,8.448 L35.380,8.449 L31.561,12.268 C32.554,13.261 32.545,14.880 31.541,15.884 C30.536,16.888 28.918,16.897 27.924,15.904 L15.922,27.906 C16.916,28.900 16.907,30.519 15.903,31.524 C14.899,32.528 13.279,32.537 12.285,31.543 L6.648,37.180 C4.643,39.186 4.625,42.431 6.609,44.415 L9.915,47.721 C13.113,46.571 16.776,47.309 19.241,49.774 C21.706,52.239 22.443,55.902 21.294,59.100 L24.600,62.406 C26.584,64.390 29.829,64.372 31.835,62.367 L33.653,60.548 L33.648,60.543 L37.467,56.724 C36.479,55.730 36.489,54.115 37.491,53.112 C38.494,52.109 40.109,52.100 41.103,53.088 L53.106,41.086 C52.112,40.092 52.121,38.473 53.125,37.469 C54.130,36.464 55.749,36.456 56.742,37.449 L62.380,31.812 C64.385,29.806 64.403,26.561 62.419,24.577 ZM46.810,34.790 C45.817,33.797 45.825,32.178 46.830,31.173 C47.834,30.169 49.453,30.160 50.447,31.153 C51.440,32.147 51.431,33.766 50.427,34.771 C49.423,35.775 47.803,35.784 46.810,34.790 ZM40.514,28.495 C39.521,27.501 39.530,25.882 40.534,24.878 C41.538,23.873 43.158,23.865 44.151,24.858 C45.145,25.851 45.136,27.471 44.132,28.475 C43.127,29.480 41.508,29.488 40.514,28.495 ZM34.219,22.199 C33.225,21.206 33.234,19.586 34.239,18.582 C35.243,17.578 36.862,17.569 37.856,18.562 C38.849,19.556 38.840,21.175 37.836,22.180 C36.832,23.184 35.212,23.193 34.219,22.199 ZM34.793,50.414 C33.789,51.418 32.169,51.427 31.175,50.433 C30.182,49.439 30.190,47.820 31.195,46.816 C32.199,45.811 33.819,45.802 34.812,46.796 C35.806,47.790 35.797,49.409 34.793,50.414 ZM24.879,44.136 C23.885,43.143 23.894,41.523 24.898,40.519 C25.902,39.514 27.522,39.506 28.516,40.499 C29.509,41.493 29.500,43.113 28.496,44.117 C27.492,45.121 25.872,45.130 24.879,44.136 ZM18.582,37.840 C17.588,36.846 17.597,35.226 18.601,34.222 C19.606,33.218 21.225,33.209 22.219,34.203 C23.212,35.196 23.204,36.816 22.199,37.820 C21.195,38.825 19.576,38.833 18.582,37.840 Z"/>
</svg>