<?xml version="1.0" encoding="utf-8"?>
<!-- Generator: Adobe Illustrator 22.1.0, SVG Export Plug-In . SVG Version: 6.00 Build 0)  -->
<svg version="1.1" id="Layer_1" xmlns="http://www.w3.org/2000/svg" xmlns:xlink="http://www.w3.org/1999/xlink" x="0px" y="0px"
	 viewBox="0 0 40 40" style="enable-background:new 0 0 40 40;" xml:space="preserve">
<style type="text/css">
	.st0{fill:none;}
	.st1{fill:#5C4D94;}
	.st2{fill:#D3CCFF;}
</style>
<title>ticket-live</title>
<g id="Layer_2_1_">
	<g id="Layer_1-2">
		<g id="Symbol_7_1">
			<g id="Group_369">
				<g id="_Group_">
					<rect id="_Path_" class="st0" width="40" height="40"/>
				</g>
				<g id="_Group_2">
					<path id="_Path_2" class="st1" d="M27.6,0c0,4.2-3.4,7.6-7.6,7.6l0,0c-4.2,0-7.6-3.4-7.6-7.6c0,0,0,0,0,0H5.7v40h6.7
						c0-4.2,3.4-7.6,7.6-7.6c4.2,0,7.6,3.4,7.6,7.6h6.7V0H27.6z"/>
					<path id="_Path_3" class="st2" d="M11.5,20c0-4.7,3.8-8.5,8.5-8.5s8.5,3.8,8.5,8.5s-3.8,8.5-8.5,8.5S11.5,24.7,11.5,20
						C11.5,20,11.5,20,11.5,20z"/>
				</g>
			</g>
		</g>
	</g>
</g>
</svg>
