<svg 
 xmlns="http://www.w3.org/2000/svg"
 xmlns:xlink="http://www.w3.org/1999/xlink"
 viewBox="0 0 70 70">
<defs>
<linearGradient id="PSgrad_0" x1="0%" x2="58.779%" y1="80.902%" y2="0%">
  <stop offset="0%" stop-color="rgb(166,92,232)" stop-opacity="1" />
  <stop offset="100%" stop-color="rgb(219,178,255)" stop-opacity="1" />
</linearGradient>

</defs>
<path fill-rule="evenodd"  opacity="0.659" fill="rgb(163, 100, 219)"
 d="M65.988,35.409 L64.169,37.228 L64.175,37.233 L35.438,65.965 C31.427,69.976 24.935,70.011 20.966,66.042 L16.378,61.455 C15.522,60.599 15.394,59.253 16.072,58.235 C17.081,56.718 16.886,54.689 15.607,53.410 C14.328,52.132 12.299,51.937 10.782,52.946 C9.764,53.623 8.417,53.495 7.561,52.640 L2.973,48.052 C-0.996,44.084 -0.961,37.593 3.050,33.582 L4.869,31.764 L4.869,31.764 L33.605,3.032 C37.617,-0.979 44.108,-1.014 48.076,2.953 L52.664,7.540 C53.520,8.396 53.648,9.742 52.970,10.760 C51.961,12.277 52.156,14.306 53.434,15.584 C54.713,16.862 56.742,17.057 58.259,16.048 C59.277,15.370 60.623,15.498 61.479,16.354 L66.067,20.941 C70.035,24.908 69.999,31.399 65.988,35.409 ZM62.429,24.577 L59.123,21.272 C55.925,22.422 52.261,21.685 49.797,19.221 C47.332,16.756 46.595,13.093 47.745,9.895 L44.439,6.590 C42.455,4.607 39.209,4.624 37.203,6.630 L35.385,8.448 L35.385,8.449 L31.566,12.268 C32.559,13.261 32.550,14.880 31.546,15.884 C30.541,16.888 28.922,16.897 27.929,15.904 L15.925,27.906 C16.919,28.900 16.910,30.519 15.905,31.524 C14.901,32.528 13.281,32.537 12.287,31.543 L6.649,37.180 C4.643,39.186 4.626,42.431 6.610,44.415 L9.917,47.721 C13.115,46.571 16.779,47.309 19.244,49.774 C21.710,52.239 22.447,55.902 21.297,59.100 L24.604,62.406 C26.588,64.390 29.834,64.372 31.840,62.367 L33.659,60.548 L33.653,60.543 L37.473,56.724 C36.485,55.730 36.495,54.115 37.497,53.112 C38.500,52.109 40.116,52.100 41.110,53.088 L53.114,41.086 C52.120,40.093 52.129,38.473 53.134,37.469 C54.138,36.464 55.758,36.456 56.751,37.449 L62.390,31.812 C64.395,29.806 64.413,26.561 62.429,24.577 Z"/>
<path fill="url(#PSgrad_0)"
 d="M65.988,35.409 L64.169,37.228 L64.175,37.233 L35.438,65.965 C31.427,69.976 24.935,70.011 20.966,66.042 L16.378,61.455 C15.522,60.599 15.394,59.253 16.072,58.235 C17.081,56.718 16.886,54.689 15.607,53.410 C14.328,52.132 12.299,51.937 10.782,52.946 C9.764,53.623 8.417,53.495 7.561,52.640 L2.973,48.052 C-0.996,44.084 -0.961,37.593 3.050,33.582 L4.869,31.764 L4.869,31.764 L33.605,3.032 C37.617,-0.979 44.108,-1.014 48.076,2.953 L52.664,7.540 C53.520,8.396 53.648,9.742 52.970,10.760 C51.961,12.277 52.156,14.306 53.434,15.584 C54.713,16.862 56.742,17.057 58.259,16.048 C59.277,15.370 60.623,15.498 61.479,16.354 L66.067,20.941 C70.035,24.908 69.999,31.399 65.988,35.409 ZM62.429,24.577 L59.123,21.272 C55.925,22.422 52.261,21.685 49.797,19.221 C47.332,16.756 46.595,13.093 47.745,9.895 L44.439,6.590 C42.455,4.607 39.209,4.624 37.203,6.630 L35.385,8.448 L35.385,8.449 L31.566,12.268 C32.559,13.261 32.550,14.880 31.546,15.884 C30.541,16.888 28.922,16.897 27.929,15.904 L15.925,27.906 C16.919,28.900 16.910,30.519 15.905,31.524 C14.901,32.528 13.281,32.537 12.287,31.543 L6.649,37.180 C4.643,39.186 4.626,42.431 6.610,44.415 L9.917,47.721 C13.115,46.571 16.779,47.309 19.244,49.774 C21.710,52.239 22.447,55.902 21.297,59.100 L24.604,62.406 C26.588,64.390 29.834,64.372 31.840,62.367 L33.659,60.548 L33.653,60.543 L37.473,56.724 C36.485,55.730 36.495,54.115 37.497,53.112 C38.500,52.109 40.116,52.100 41.110,53.088 L53.114,41.086 C52.120,40.093 52.129,38.473 53.134,37.469 C54.138,36.464 55.758,36.456 56.751,37.449 L62.390,31.812 C64.395,29.806 64.413,26.561 62.429,24.577 Z"/>
</svg>