<?xml version="1.0" encoding="utf-8"?>
<!-- Generator: Adobe Illustrator 22.1.0, SVG Export Plug-In . SVG Version: 6.00 Build 0)  -->
<svg version="1.1" id="Layer_1" xmlns="http://www.w3.org/2000/svg" xmlns:xlink="http://www.w3.org/1999/xlink" x="0px" y="0px"
	 viewBox="0 0 40 40" style="enable-background:new 0 0 40 40;" xml:space="preserve">
<style type="text/css">
	.st0{fill:#D3CCFF;}
	.st1{fill:#5C4D94;}
	.st2{fill:none;}
</style>
<title>ticket-revoked</title>
<g id="Layer_2_1_">
	<g id="Layer_1-2">
		<g id="Symbol_4_1">
			<g id="Group_434">
				<g id="Group_433">
					<g id="Group_431">
						<path id="Path_178" class="st0" d="M21.9,32.4L40,28l-1.4-5.7l0,0c-3.6,0.9-7.2-1.3-8.1-4.9c-0.9-3.6,1.3-7.2,4.9-8.1l0,0
							L34,3.7l-12.1,3L21.9,32.4z"/>
						<path id="Path_179" class="st0" d="M18.1,7.6L0,12l1.4,5.7C5,16.8,8.6,19,9.5,22.6s-1.3,7.2-4.9,8.1l0,0L6,36.3l12.1-3
							L18.1,7.6L18.1,7.6z"/>
					</g>
					<g id="Group_432">
						<path id="Path_180" class="st1" d="M18.1,12.7c-4,1.1-6.4,5.1-5.4,9.2c0.7,2.6,2.7,4.7,5.4,5.4V12.7z"/>
						<path id="Path_181" class="st1" d="M21.9,12.7v14.5c4-1.1,6.4-5.1,5.4-9.2C26.6,15.5,24.5,13.4,21.9,12.7z"/>
					</g>
					<g id="_Group_">
						<rect id="_Path_" x="19.3" y="32.5" class="st1" width="1.3" height="5"/>
						<rect id="_Path_2" x="19.3" y="25" class="st1" width="1.3" height="5"/>
						<rect id="_Path_3" x="19.3" y="17.5" class="st1" width="1.3" height="5"/>
						<rect id="_Path_4" x="19.3" y="10" class="st1" width="1.3" height="5"/>
						<rect id="_Path_5" x="19.3" y="2.5" class="st1" width="1.3" height="5"/>
					</g>
				</g>
			</g>
		</g>
		<g id="_Group_2">
			<rect id="_Path_6" class="st2" width="40" height="40"/>
		</g>
	</g>
</g>
</svg>
