<svg 
 xmlns="http://www.w3.org/2000/svg"
 xmlns:xlink="http://www.w3.org/1999/xlink"
 viewBox="0 0 25 25">
<defs>
<linearGradient id="PSgrad_0" x1="0%" x2="58.779%" y1="80.902%" y2="0%">
  <stop offset="0%" stop-color="rgb(132,49,207)" stop-opacity="1" />
  <stop offset="100%" stop-color="rgb(170,97,235)" stop-opacity="1" />
</linearGradient>

</defs>
<path fill-rule="evenodd"  fill="rgb(163, 100, 219)"
 d="M2.384,5.155 C2.701,4.719 3.310,4.622 3.746,4.940 C4.181,5.257 4.277,5.868 3.960,6.303 C3.770,6.566 3.473,6.705 3.171,6.705 C2.972,6.705 2.771,6.645 2.598,6.518 C2.163,6.201 2.067,5.590 2.384,5.155 ZM1.235,9.866 C1.335,9.899 1.436,9.914 1.536,9.914 C1.947,9.914 2.329,9.652 2.463,9.240 C2.629,8.727 2.350,8.176 1.837,8.009 C1.325,7.843 0.775,8.124 0.609,8.636 C0.442,9.149 0.722,9.700 1.235,9.866 ZM5.718,4.157 C5.917,4.157 6.118,4.096 6.291,3.970 C6.291,3.970 6.291,3.970 6.291,3.970 C6.727,3.653 6.823,3.043 6.506,2.607 C6.189,2.171 5.579,2.075 5.144,2.392 C4.709,2.709 4.612,3.319 4.929,3.756 C5.120,4.018 5.417,4.157 5.718,4.157 ZM8.923,2.519 C9.023,2.519 9.125,2.504 9.224,2.471 C9.737,2.305 10.017,1.755 9.851,1.242 C9.684,0.729 9.134,0.448 8.622,0.615 C8.110,0.781 7.830,1.332 7.996,1.845 C8.130,2.257 8.512,2.519 8.923,2.519 ZM0.019,12.692 C0.025,12.723 0.033,12.754 0.042,12.785 C0.052,12.815 0.062,12.845 0.075,12.875 C0.087,12.904 0.101,12.933 0.116,12.961 C0.130,12.989 0.147,13.017 0.164,13.043 C0.182,13.070 0.201,13.096 0.221,13.120 C0.241,13.145 0.263,13.169 0.286,13.191 C0.308,13.214 0.332,13.236 0.357,13.256 C0.381,13.276 0.407,13.295 0.434,13.313 C0.460,13.330 0.488,13.347 0.516,13.362 C0.544,13.377 0.573,13.391 0.602,13.403 C0.631,13.415 0.662,13.426 0.692,13.435 C0.722,13.444 0.754,13.452 0.784,13.458 C0.816,13.465 0.848,13.470 0.879,13.472 C0.911,13.476 0.943,13.477 0.975,13.477 C1.007,13.477 1.039,13.476 1.071,13.472 C1.102,13.469 1.134,13.465 1.166,13.458 C1.197,13.452 1.227,13.444 1.258,13.435 C1.288,13.426 1.319,13.415 1.348,13.403 C1.377,13.391 1.406,13.377 1.434,13.362 C1.462,13.347 1.490,13.330 1.516,13.313 C1.543,13.295 1.569,13.276 1.593,13.256 C1.618,13.236 1.642,13.214 1.664,13.191 C1.687,13.169 1.709,13.145 1.729,13.120 C1.749,13.096 1.768,13.070 1.786,13.043 C1.803,13.017 1.820,12.989 1.834,12.961 C1.849,12.933 1.863,12.904 1.875,12.875 C1.887,12.845 1.898,12.815 1.908,12.785 C1.917,12.754 1.924,12.723 1.931,12.692 C1.937,12.661 1.942,12.629 1.945,12.597 C1.948,12.566 1.950,12.533 1.950,12.501 C1.950,12.470 1.948,12.437 1.945,12.405 C1.942,12.374 1.937,12.342 1.931,12.310 C1.924,12.280 1.917,12.248 1.908,12.218 C1.898,12.187 1.887,12.157 1.875,12.128 C1.863,12.099 1.849,12.069 1.834,12.042 C1.820,12.014 1.803,11.986 1.786,11.960 C1.768,11.933 1.749,11.907 1.729,11.882 C1.709,11.857 1.687,11.834 1.664,11.811 C1.642,11.789 1.618,11.767 1.593,11.747 C1.569,11.726 1.543,11.707 1.516,11.690 C1.490,11.672 1.462,11.655 1.434,11.641 C1.406,11.626 1.377,11.612 1.348,11.600 C1.319,11.588 1.288,11.577 1.258,11.568 C1.227,11.558 1.197,11.550 1.166,11.544 C1.134,11.538 1.102,11.533 1.071,11.530 C1.007,11.524 0.943,11.524 0.879,11.530 C0.848,11.533 0.816,11.538 0.784,11.544 C0.754,11.550 0.722,11.558 0.692,11.568 C0.662,11.577 0.631,11.588 0.602,11.600 C0.573,11.612 0.544,11.626 0.516,11.641 C0.488,11.655 0.460,11.672 0.434,11.690 C0.407,11.707 0.381,11.726 0.357,11.747 C0.332,11.767 0.308,11.789 0.286,11.811 C0.263,11.834 0.241,11.857 0.221,11.882 C0.201,11.907 0.182,11.933 0.164,11.960 C0.147,11.986 0.130,12.014 0.116,12.042 C0.101,12.069 0.087,12.099 0.075,12.128 C0.062,12.157 0.052,12.188 0.042,12.218 C0.033,12.248 0.025,12.280 0.019,12.310 C0.013,12.342 0.008,12.374 0.005,12.405 C0.002,12.437 0.000,12.470 0.000,12.501 C0.000,12.533 0.002,12.566 0.005,12.597 C0.008,12.629 0.013,12.661 0.019,12.692 ZM24.032,2.251 C23.494,2.251 23.057,2.688 23.057,3.228 L23.057,5.868 C22.093,4.327 20.801,3.011 19.263,2.012 C17.243,0.700 14.897,0.006 12.479,0.006 C12.442,0.006 12.406,0.009 12.370,0.013 C12.344,0.016 12.318,0.020 12.292,0.025 C12.186,0.045 12.085,0.084 11.994,0.136 C11.978,0.146 11.962,0.155 11.946,0.166 C11.913,0.187 11.881,0.211 11.851,0.237 C11.831,0.253 11.812,0.270 11.794,0.288 C11.791,0.291 11.789,0.294 11.786,0.297 C11.768,0.315 11.751,0.334 11.734,0.353 C11.730,0.359 11.725,0.364 11.721,0.369 C11.707,0.387 11.693,0.406 11.680,0.425 C11.674,0.433 11.669,0.441 11.663,0.449 C11.653,0.465 11.644,0.481 11.634,0.497 C11.582,0.588 11.543,0.689 11.523,0.796 C11.518,0.821 11.514,0.847 11.511,0.872 C11.511,0.877 11.510,0.882 11.509,0.886 C11.506,0.919 11.504,0.951 11.504,0.982 C11.504,1.014 11.506,1.046 11.509,1.078 C11.510,1.083 11.511,1.088 11.511,1.093 C11.514,1.118 11.518,1.144 11.523,1.169 C11.543,1.276 11.582,1.377 11.634,1.468 C11.644,1.484 11.653,1.500 11.663,1.516 C11.669,1.524 11.674,1.532 11.680,1.540 C11.693,1.559 11.706,1.577 11.721,1.595 C11.725,1.601 11.730,1.606 11.735,1.612 C11.751,1.631 11.768,1.650 11.785,1.668 C11.789,1.671 11.792,1.674 11.795,1.677 C11.813,1.695 11.831,1.712 11.851,1.728 C11.856,1.733 11.862,1.737 11.867,1.742 C11.885,1.756 11.903,1.770 11.922,1.783 C11.930,1.789 11.939,1.794 11.947,1.800 C11.963,1.810 11.978,1.819 11.994,1.828 C12.085,1.881 12.186,1.920 12.293,1.940 C12.319,1.945 12.344,1.949 12.370,1.952 C12.375,1.953 12.380,1.953 12.384,1.954 C12.416,1.957 12.448,1.959 12.479,1.959 C16.166,1.959 19.588,3.917 21.482,7.031 L19.254,7.035 C18.715,7.036 18.279,7.473 18.280,8.012 C18.281,8.551 18.717,8.987 19.255,8.987 C19.256,8.987 19.256,8.987 19.257,8.987 L22.109,8.983 C22.112,8.983 22.115,8.983 22.118,8.983 C22.889,8.983 23.612,8.685 24.153,8.142 C24.707,7.588 25.011,6.843 25.007,6.050 L25.007,3.228 C25.007,2.688 24.571,2.251 24.032,2.251 ZM23.773,15.136 C23.261,14.969 22.710,15.250 22.544,15.763 C22.378,16.276 22.658,16.826 23.170,16.993 C23.270,17.025 23.372,17.041 23.472,17.041 C23.883,17.041 24.265,16.779 24.399,16.366 C24.565,15.853 24.285,15.303 23.773,15.136 ZM22.409,18.484 C21.974,18.167 21.364,18.263 21.047,18.699 C20.730,19.135 20.826,19.745 21.262,20.063 C21.435,20.188 21.635,20.250 21.834,20.250 C22.136,20.250 22.432,20.110 22.624,19.848 C22.940,19.412 22.844,18.801 22.409,18.484 ZM15.783,22.531 C15.271,22.697 14.990,23.248 15.156,23.761 C15.291,24.173 15.673,24.435 16.084,24.436 C16.184,24.436 16.285,24.420 16.385,24.387 C16.897,24.221 17.177,23.671 17.011,23.158 C16.845,22.645 16.295,22.364 15.783,22.531 ZM18.716,21.032 C18.281,21.349 18.185,21.960 18.501,22.396 C18.693,22.658 18.989,22.797 19.291,22.797 C19.490,22.797 19.690,22.737 19.863,22.610 C20.299,22.293 20.395,21.683 20.078,21.247 C19.762,20.811 19.152,20.715 18.716,21.032 ZM24.988,12.310 C24.982,12.280 24.974,12.248 24.965,12.218 C24.956,12.187 24.945,12.157 24.933,12.128 C24.921,12.099 24.907,12.069 24.892,12.041 C24.877,12.013 24.861,11.986 24.843,11.959 C24.826,11.933 24.806,11.907 24.786,11.882 C24.766,11.857 24.744,11.834 24.722,11.811 C24.699,11.789 24.675,11.767 24.650,11.747 C24.626,11.726 24.600,11.707 24.573,11.690 C24.547,11.672 24.519,11.655 24.492,11.641 C24.464,11.626 24.435,11.612 24.405,11.600 C24.376,11.588 24.346,11.577 24.316,11.567 C24.285,11.558 24.254,11.550 24.223,11.544 C24.192,11.538 24.160,11.533 24.128,11.530 C24.065,11.524 24.000,11.524 23.936,11.530 C23.905,11.533 23.873,11.538 23.842,11.544 C23.811,11.550 23.780,11.558 23.749,11.567 C23.719,11.577 23.689,11.588 23.660,11.600 C23.630,11.612 23.601,11.626 23.573,11.641 C23.545,11.655 23.518,11.672 23.491,11.690 C23.464,11.707 23.439,11.726 23.414,11.747 C23.389,11.767 23.366,11.789 23.343,11.811 C23.321,11.834 23.299,11.857 23.279,11.882 C23.259,11.907 23.239,11.933 23.222,11.959 C23.204,11.986 23.188,12.013 23.173,12.041 C23.158,12.069 23.144,12.099 23.132,12.128 C23.120,12.157 23.109,12.187 23.100,12.218 C23.091,12.248 23.083,12.280 23.077,12.310 C23.070,12.342 23.065,12.374 23.062,12.405 C23.059,12.437 23.058,12.469 23.058,12.501 C23.058,12.533 23.059,12.565 23.062,12.597 C23.065,12.629 23.070,12.661 23.077,12.692 C23.083,12.723 23.091,12.754 23.100,12.785 C23.109,12.815 23.120,12.845 23.132,12.875 C23.144,12.904 23.158,12.933 23.173,12.961 C23.188,12.989 23.204,13.017 23.222,13.043 C23.239,13.070 23.259,13.096 23.279,13.120 C23.299,13.145 23.321,13.169 23.343,13.191 C23.366,13.214 23.389,13.236 23.414,13.256 C23.439,13.276 23.464,13.295 23.491,13.313 C23.518,13.330 23.545,13.347 23.573,13.362 C23.601,13.377 23.630,13.391 23.660,13.403 C23.689,13.415 23.719,13.426 23.749,13.435 C23.780,13.444 23.811,13.452 23.842,13.458 C23.873,13.465 23.905,13.469 23.936,13.472 C23.969,13.476 24.001,13.477 24.032,13.477 C24.064,13.477 24.096,13.476 24.128,13.472 C24.160,13.469 24.192,13.465 24.223,13.458 C24.254,13.452 24.285,13.444 24.316,13.435 C24.346,13.426 24.376,13.415 24.405,13.403 C24.435,13.390 24.464,13.377 24.492,13.362 C24.519,13.347 24.547,13.330 24.573,13.313 C24.600,13.295 24.626,13.276 24.650,13.256 C24.675,13.236 24.699,13.214 24.722,13.191 C24.744,13.169 24.766,13.145 24.786,13.120 C24.806,13.096 24.826,13.070 24.843,13.043 C24.861,13.017 24.877,12.989 24.892,12.961 C24.907,12.933 24.921,12.904 24.933,12.875 C24.945,12.845 24.956,12.815 24.965,12.785 C24.974,12.754 24.982,12.723 24.988,12.692 C24.995,12.661 25.000,12.629 25.002,12.597 C25.006,12.565 25.007,12.533 25.007,12.501 C25.007,12.469 25.006,12.437 25.002,12.405 C24.999,12.374 24.995,12.342 24.988,12.310 ZM13.287,24.632 C13.301,24.615 13.314,24.597 13.327,24.579 C13.333,24.570 13.339,24.561 13.344,24.553 C13.355,24.537 13.364,24.521 13.373,24.505 C13.426,24.413 13.464,24.313 13.485,24.206 C13.490,24.181 13.494,24.155 13.496,24.130 C13.497,24.125 13.498,24.120 13.498,24.114 C13.501,24.083 13.503,24.052 13.503,24.021 C13.503,24.021 13.503,24.020 13.503,24.020 C13.503,24.020 13.503,24.019 13.503,24.019 C13.503,23.988 13.501,23.957 13.498,23.926 C13.498,23.920 13.497,23.915 13.496,23.910 C13.494,23.885 13.490,23.860 13.485,23.835 C13.464,23.727 13.425,23.625 13.372,23.533 C13.364,23.518 13.355,23.504 13.346,23.489 C13.339,23.480 13.333,23.470 13.327,23.461 C13.314,23.443 13.301,23.425 13.287,23.408 C13.282,23.402 13.277,23.396 13.272,23.390 C13.256,23.371 13.240,23.353 13.223,23.336 C13.219,23.332 13.215,23.328 13.212,23.324 C13.194,23.307 13.176,23.291 13.158,23.275 C13.151,23.270 13.145,23.265 13.139,23.260 C13.122,23.246 13.104,23.233 13.086,23.220 C13.077,23.214 13.068,23.208 13.059,23.202 C13.044,23.192 13.029,23.183 13.014,23.175 C12.922,23.122 12.821,23.083 12.714,23.062 C12.689,23.057 12.663,23.053 12.638,23.051 C12.602,23.046 12.565,23.044 12.528,23.044 C8.841,23.044 5.420,21.085 3.525,17.971 L5.754,17.968 C6.292,17.967 6.728,17.529 6.727,16.990 C6.726,16.452 6.290,16.015 5.752,16.015 C5.752,16.015 5.751,16.015 5.751,16.015 L2.899,16.020 C2.896,16.020 2.893,16.020 2.889,16.020 C2.118,16.020 1.395,16.318 0.854,16.860 C0.300,17.415 -0.003,18.159 0.000,18.953 L0.000,21.775 C0.000,22.314 0.437,22.751 0.975,22.751 C1.513,22.751 1.950,22.314 1.950,21.775 L1.950,19.134 C2.915,20.675 4.206,21.992 5.745,22.991 C7.764,24.302 10.109,24.996 12.527,24.996 C12.527,24.996 12.528,24.996 12.528,24.996 C12.560,24.996 12.592,24.995 12.624,24.991 C12.628,24.991 12.633,24.990 12.637,24.990 C12.663,24.987 12.689,24.983 12.715,24.978 C12.822,24.957 12.922,24.919 13.013,24.866 C13.029,24.857 13.044,24.848 13.060,24.838 C13.068,24.832 13.077,24.826 13.086,24.820 C13.104,24.807 13.122,24.794 13.140,24.780 C13.146,24.775 13.151,24.770 13.157,24.765 C13.176,24.750 13.194,24.733 13.212,24.715 C13.216,24.712 13.219,24.708 13.222,24.705 C13.240,24.687 13.257,24.669 13.272,24.650 C13.277,24.644 13.282,24.638 13.287,24.632 Z"/>
<path fill="url(#PSgrad_0)"
 d="M2.384,5.155 C2.701,4.719 3.310,4.622 3.746,4.940 C4.181,5.257 4.277,5.868 3.960,6.303 C3.770,6.566 3.473,6.705 3.171,6.705 C2.972,6.705 2.771,6.645 2.598,6.518 C2.163,6.201 2.067,5.590 2.384,5.155 ZM1.235,9.866 C1.335,9.899 1.436,9.914 1.536,9.914 C1.947,9.914 2.329,9.652 2.463,9.240 C2.629,8.727 2.350,8.176 1.837,8.009 C1.325,7.843 0.775,8.124 0.609,8.636 C0.442,9.149 0.722,9.700 1.235,9.866 ZM5.718,4.157 C5.917,4.157 6.118,4.096 6.291,3.970 C6.291,3.970 6.291,3.970 6.291,3.970 C6.727,3.653 6.823,3.043 6.506,2.607 C6.189,2.171 5.579,2.075 5.144,2.392 C4.709,2.709 4.612,3.319 4.929,3.756 C5.120,4.018 5.417,4.157 5.718,4.157 ZM8.923,2.519 C9.023,2.519 9.125,2.504 9.224,2.471 C9.737,2.305 10.017,1.755 9.851,1.242 C9.684,0.729 9.134,0.448 8.622,0.615 C8.110,0.781 7.830,1.332 7.996,1.845 C8.130,2.257 8.512,2.519 8.923,2.519 ZM0.019,12.692 C0.025,12.723 0.033,12.754 0.042,12.785 C0.052,12.815 0.062,12.845 0.075,12.875 C0.087,12.904 0.101,12.933 0.116,12.961 C0.130,12.989 0.147,13.017 0.164,13.043 C0.182,13.070 0.201,13.096 0.221,13.120 C0.241,13.145 0.263,13.169 0.286,13.191 C0.308,13.214 0.332,13.236 0.357,13.256 C0.381,13.276 0.407,13.295 0.434,13.313 C0.460,13.330 0.488,13.347 0.516,13.362 C0.544,13.377 0.573,13.391 0.602,13.403 C0.631,13.415 0.662,13.426 0.692,13.435 C0.722,13.444 0.754,13.452 0.784,13.458 C0.816,13.465 0.848,13.470 0.879,13.472 C0.911,13.476 0.943,13.477 0.975,13.477 C1.007,13.477 1.039,13.476 1.071,13.472 C1.102,13.469 1.134,13.465 1.166,13.458 C1.197,13.452 1.227,13.444 1.258,13.435 C1.288,13.426 1.319,13.415 1.348,13.403 C1.377,13.391 1.406,13.377 1.434,13.362 C1.462,13.347 1.490,13.330 1.516,13.313 C1.543,13.295 1.569,13.276 1.593,13.256 C1.618,13.236 1.642,13.214 1.664,13.191 C1.687,13.169 1.709,13.145 1.729,13.120 C1.749,13.096 1.768,13.070 1.786,13.043 C1.803,13.017 1.820,12.989 1.834,12.961 C1.849,12.933 1.863,12.904 1.875,12.875 C1.887,12.845 1.898,12.815 1.908,12.785 C1.917,12.754 1.924,12.723 1.931,12.692 C1.937,12.661 1.942,12.629 1.945,12.597 C1.948,12.566 1.950,12.533 1.950,12.501 C1.950,12.470 1.948,12.437 1.945,12.405 C1.942,12.374 1.937,12.342 1.931,12.310 C1.924,12.280 1.917,12.248 1.908,12.218 C1.898,12.187 1.887,12.157 1.875,12.128 C1.863,12.099 1.849,12.069 1.834,12.042 C1.820,12.014 1.803,11.986 1.786,11.960 C1.768,11.933 1.749,11.907 1.729,11.882 C1.709,11.857 1.687,11.834 1.664,11.811 C1.642,11.789 1.618,11.767 1.593,11.747 C1.569,11.726 1.543,11.707 1.516,11.690 C1.490,11.672 1.462,11.655 1.434,11.641 C1.406,11.626 1.377,11.612 1.348,11.600 C1.319,11.588 1.288,11.577 1.258,11.568 C1.227,11.558 1.197,11.550 1.166,11.544 C1.134,11.538 1.102,11.533 1.071,11.530 C1.007,11.524 0.943,11.524 0.879,11.530 C0.848,11.533 0.816,11.538 0.784,11.544 C0.754,11.550 0.722,11.558 0.692,11.568 C0.662,11.577 0.631,11.588 0.602,11.600 C0.573,11.612 0.544,11.626 0.516,11.641 C0.488,11.655 0.460,11.672 0.434,11.690 C0.407,11.707 0.381,11.726 0.357,11.747 C0.332,11.767 0.308,11.789 0.286,11.811 C0.263,11.834 0.241,11.857 0.221,11.882 C0.201,11.907 0.182,11.933 0.164,11.960 C0.147,11.986 0.130,12.014 0.116,12.042 C0.101,12.069 0.087,12.099 0.075,12.128 C0.062,12.157 0.052,12.188 0.042,12.218 C0.033,12.248 0.025,12.280 0.019,12.310 C0.013,12.342 0.008,12.374 0.005,12.405 C0.002,12.437 0.000,12.470 0.000,12.501 C0.000,12.533 0.002,12.566 0.005,12.597 C0.008,12.629 0.013,12.661 0.019,12.692 ZM24.032,2.251 C23.494,2.251 23.057,2.688 23.057,3.228 L23.057,5.868 C22.093,4.327 20.801,3.011 19.263,2.012 C17.243,0.700 14.897,0.006 12.479,0.006 C12.442,0.006 12.406,0.009 12.370,0.013 C12.344,0.016 12.318,0.020 12.292,0.025 C12.186,0.045 12.085,0.084 11.994,0.136 C11.978,0.146 11.962,0.155 11.946,0.166 C11.913,0.187 11.881,0.211 11.851,0.237 C11.831,0.253 11.812,0.270 11.794,0.288 C11.791,0.291 11.789,0.294 11.786,0.297 C11.768,0.315 11.751,0.334 11.734,0.353 C11.730,0.359 11.725,0.364 11.721,0.369 C11.707,0.387 11.693,0.406 11.680,0.425 C11.674,0.433 11.669,0.441 11.663,0.449 C11.653,0.465 11.644,0.481 11.634,0.497 C11.582,0.588 11.543,0.689 11.523,0.796 C11.518,0.821 11.514,0.847 11.511,0.872 C11.511,0.877 11.510,0.882 11.509,0.886 C11.506,0.919 11.504,0.951 11.504,0.982 C11.504,1.014 11.506,1.046 11.509,1.078 C11.510,1.083 11.511,1.088 11.511,1.093 C11.514,1.118 11.518,1.144 11.523,1.169 C11.543,1.276 11.582,1.377 11.634,1.468 C11.644,1.484 11.653,1.500 11.663,1.516 C11.669,1.524 11.674,1.532 11.680,1.540 C11.693,1.559 11.706,1.577 11.721,1.595 C11.725,1.601 11.730,1.606 11.735,1.612 C11.751,1.631 11.768,1.650 11.785,1.668 C11.789,1.671 11.792,1.674 11.795,1.677 C11.813,1.695 11.831,1.712 11.851,1.728 C11.856,1.733 11.862,1.737 11.867,1.742 C11.885,1.756 11.903,1.770 11.922,1.783 C11.930,1.789 11.939,1.794 11.947,1.800 C11.963,1.810 11.978,1.819 11.994,1.828 C12.085,1.881 12.186,1.920 12.293,1.940 C12.319,1.945 12.344,1.949 12.370,1.952 C12.375,1.953 12.380,1.953 12.384,1.954 C12.416,1.957 12.448,1.959 12.479,1.959 C16.166,1.959 19.588,3.917 21.482,7.031 L19.254,7.035 C18.715,7.036 18.279,7.473 18.280,8.012 C18.281,8.551 18.717,8.987 19.255,8.987 C19.256,8.987 19.256,8.987 19.257,8.987 L22.109,8.983 C22.112,8.983 22.115,8.983 22.118,8.983 C22.889,8.983 23.612,8.685 24.153,8.142 C24.707,7.588 25.011,6.843 25.007,6.050 L25.007,3.228 C25.007,2.688 24.571,2.251 24.032,2.251 ZM23.773,15.136 C23.261,14.969 22.710,15.250 22.544,15.763 C22.378,16.276 22.658,16.826 23.170,16.993 C23.270,17.025 23.372,17.041 23.472,17.041 C23.883,17.041 24.265,16.779 24.399,16.366 C24.565,15.853 24.285,15.303 23.773,15.136 ZM22.409,18.484 C21.974,18.167 21.364,18.263 21.047,18.699 C20.730,19.135 20.826,19.745 21.262,20.063 C21.435,20.188 21.635,20.250 21.834,20.250 C22.136,20.250 22.432,20.110 22.624,19.848 C22.940,19.412 22.844,18.801 22.409,18.484 ZM15.783,22.531 C15.271,22.697 14.990,23.248 15.156,23.761 C15.291,24.173 15.673,24.435 16.084,24.436 C16.184,24.436 16.285,24.420 16.385,24.387 C16.897,24.221 17.177,23.671 17.011,23.158 C16.845,22.645 16.295,22.364 15.783,22.531 ZM18.716,21.032 C18.281,21.349 18.185,21.960 18.501,22.396 C18.693,22.658 18.989,22.797 19.291,22.797 C19.490,22.797 19.690,22.737 19.863,22.610 C20.299,22.293 20.395,21.683 20.078,21.247 C19.762,20.811 19.152,20.715 18.716,21.032 ZM24.988,12.310 C24.982,12.280 24.974,12.248 24.965,12.218 C24.956,12.187 24.945,12.157 24.933,12.128 C24.921,12.099 24.907,12.069 24.892,12.041 C24.877,12.013 24.861,11.986 24.843,11.959 C24.826,11.933 24.806,11.907 24.786,11.882 C24.766,11.857 24.744,11.834 24.722,11.811 C24.699,11.789 24.675,11.767 24.650,11.747 C24.626,11.726 24.600,11.707 24.573,11.690 C24.547,11.672 24.519,11.655 24.492,11.641 C24.464,11.626 24.435,11.612 24.405,11.600 C24.376,11.588 24.346,11.577 24.316,11.567 C24.285,11.558 24.254,11.550 24.223,11.544 C24.192,11.538 24.160,11.533 24.128,11.530 C24.065,11.524 24.000,11.524 23.936,11.530 C23.905,11.533 23.873,11.538 23.842,11.544 C23.811,11.550 23.780,11.558 23.749,11.567 C23.719,11.577 23.689,11.588 23.660,11.600 C23.630,11.612 23.601,11.626 23.573,11.641 C23.545,11.655 23.518,11.672 23.491,11.690 C23.464,11.707 23.439,11.726 23.414,11.747 C23.389,11.767 23.366,11.789 23.343,11.811 C23.321,11.834 23.299,11.857 23.279,11.882 C23.259,11.907 23.239,11.933 23.222,11.959 C23.204,11.986 23.188,12.013 23.173,12.041 C23.158,12.069 23.144,12.099 23.132,12.128 C23.120,12.157 23.109,12.187 23.100,12.218 C23.091,12.248 23.083,12.280 23.077,12.310 C23.070,12.342 23.065,12.374 23.062,12.405 C23.059,12.437 23.058,12.469 23.058,12.501 C23.058,12.533 23.059,12.565 23.062,12.597 C23.065,12.629 23.070,12.661 23.077,12.692 C23.083,12.723 23.091,12.754 23.100,12.785 C23.109,12.815 23.120,12.845 23.132,12.875 C23.144,12.904 23.158,12.933 23.173,12.961 C23.188,12.989 23.204,13.017 23.222,13.043 C23.239,13.070 23.259,13.096 23.279,13.120 C23.299,13.145 23.321,13.169 23.343,13.191 C23.366,13.214 23.389,13.236 23.414,13.256 C23.439,13.276 23.464,13.295 23.491,13.313 C23.518,13.330 23.545,13.347 23.573,13.362 C23.601,13.377 23.630,13.391 23.660,13.403 C23.689,13.415 23.719,13.426 23.749,13.435 C23.780,13.444 23.811,13.452 23.842,13.458 C23.873,13.465 23.905,13.469 23.936,13.472 C23.969,13.476 24.001,13.477 24.032,13.477 C24.064,13.477 24.096,13.476 24.128,13.472 C24.160,13.469 24.192,13.465 24.223,13.458 C24.254,13.452 24.285,13.444 24.316,13.435 C24.346,13.426 24.376,13.415 24.405,13.403 C24.435,13.390 24.464,13.377 24.492,13.362 C24.519,13.347 24.547,13.330 24.573,13.313 C24.600,13.295 24.626,13.276 24.650,13.256 C24.675,13.236 24.699,13.214 24.722,13.191 C24.744,13.169 24.766,13.145 24.786,13.120 C24.806,13.096 24.826,13.070 24.843,13.043 C24.861,13.017 24.877,12.989 24.892,12.961 C24.907,12.933 24.921,12.904 24.933,12.875 C24.945,12.845 24.956,12.815 24.965,12.785 C24.974,12.754 24.982,12.723 24.988,12.692 C24.995,12.661 25.000,12.629 25.002,12.597 C25.006,12.565 25.007,12.533 25.007,12.501 C25.007,12.469 25.006,12.437 25.002,12.405 C24.999,12.374 24.995,12.342 24.988,12.310 ZM13.287,24.632 C13.301,24.615 13.314,24.597 13.327,24.579 C13.333,24.570 13.339,24.561 13.344,24.553 C13.355,24.537 13.364,24.521 13.373,24.505 C13.426,24.413 13.464,24.313 13.485,24.206 C13.490,24.181 13.494,24.155 13.496,24.130 C13.497,24.125 13.498,24.120 13.498,24.114 C13.501,24.083 13.503,24.052 13.503,24.021 C13.503,24.021 13.503,24.020 13.503,24.020 C13.503,24.020 13.503,24.019 13.503,24.019 C13.503,23.988 13.501,23.957 13.498,23.926 C13.498,23.920 13.497,23.915 13.496,23.910 C13.494,23.885 13.490,23.860 13.485,23.835 C13.464,23.727 13.425,23.625 13.372,23.533 C13.364,23.518 13.355,23.504 13.346,23.489 C13.339,23.480 13.333,23.470 13.327,23.461 C13.314,23.443 13.301,23.425 13.287,23.408 C13.282,23.402 13.277,23.396 13.272,23.390 C13.256,23.371 13.240,23.353 13.223,23.336 C13.219,23.332 13.215,23.328 13.212,23.324 C13.194,23.307 13.176,23.291 13.158,23.275 C13.151,23.270 13.145,23.265 13.139,23.260 C13.122,23.246 13.104,23.233 13.086,23.220 C13.077,23.214 13.068,23.208 13.059,23.202 C13.044,23.192 13.029,23.183 13.014,23.175 C12.922,23.122 12.821,23.083 12.714,23.062 C12.689,23.057 12.663,23.053 12.638,23.051 C12.602,23.046 12.565,23.044 12.528,23.044 C8.841,23.044 5.420,21.085 3.525,17.971 L5.754,17.968 C6.292,17.967 6.728,17.529 6.727,16.990 C6.726,16.452 6.290,16.015 5.752,16.015 C5.752,16.015 5.751,16.015 5.751,16.015 L2.899,16.020 C2.896,16.020 2.893,16.020 2.889,16.020 C2.118,16.020 1.395,16.318 0.854,16.860 C0.300,17.415 -0.003,18.159 0.000,18.953 L0.000,21.775 C0.000,22.314 0.437,22.751 0.975,22.751 C1.513,22.751 1.950,22.314 1.950,21.775 L1.950,19.134 C2.915,20.675 4.206,21.992 5.745,22.991 C7.764,24.302 10.109,24.996 12.527,24.996 C12.527,24.996 12.528,24.996 12.528,24.996 C12.560,24.996 12.592,24.995 12.624,24.991 C12.628,24.991 12.633,24.990 12.637,24.990 C12.663,24.987 12.689,24.983 12.715,24.978 C12.822,24.957 12.922,24.919 13.013,24.866 C13.029,24.857 13.044,24.848 13.060,24.838 C13.068,24.832 13.077,24.826 13.086,24.820 C13.104,24.807 13.122,24.794 13.140,24.780 C13.146,24.775 13.151,24.770 13.157,24.765 C13.176,24.750 13.194,24.733 13.212,24.715 C13.216,24.712 13.219,24.708 13.222,24.705 C13.240,24.687 13.257,24.669 13.272,24.650 C13.277,24.644 13.282,24.638 13.287,24.632 Z"/>
</svg>