<?xml version="1.0" encoding="UTF-8"?>
<svg width="40px" height="36px" viewBox="0 0 40 36" version="1.1" xmlns="http://www.w3.org/2000/svg" xmlns:xlink="http://www.w3.org/1999/xlink">
    <!-- Generator: Sketch 48.2 (47327) - http://www.bohemiancoding.com/sketch -->
    <title>wallet-white</title>
    <desc>Created with Sketch.</desc>
    <defs></defs>
    <g id="iPhone-8-Plus" stroke="none" stroke-width="1" fill="none" fill-rule="evenodd" transform="translate(-184.000000, -350.000000)">
        <g id="wallet-white" transform="translate(184.000000, 350.000000)" fill-rule="nonzero">
            <g id="XMLID_75_">
                <path d="M0.031,3.868 C0.039,3.827 0.043,3.784 0.051,3.745 C0.043,3.784 0.035,3.827 0.031,3.868 Z" id="XMLID_81_" fill="#65676A"></path>
                <path d="M3.43,6.599 L34.282,6.599 L34.282,4.315 C34.282,2.43 32.739,0.887 30.852,0.887 L3.43,0.887 C1.739,0.887 0.325,2.127 0.051,3.742 C0.324,5.358 1.738,6.599 3.43,6.599 Z" id="XMLID_80_" fill="#FFFFFF" opacity="0.750056612"></path>
                <path d="M0.016,4.009 C0.02,3.972 0.023,3.937 0.027,3.901 C0.023,3.937 0.02,3.972 0.016,4.009 Z" id="XMLID_79_" fill="#65676A"></path>
                <path d="M0.004,4.157 C0.004,4.132 0.008,4.104 0.008,4.077 C0.008,4.104 0.004,4.132 0.004,4.157 Z" id="XMLID_78_" fill="#65676A"></path>
                <path d="M36.57,6.599 L34.285,6.599 L34.281,6.599 L3.43,6.599 C1.739,6.599 0.325,5.359 0.051,3.744 L0.051,3.746 C0.043,3.785 0.039,3.828 0.031,3.869 C0.027,3.878 0.027,3.89 0.027,3.901 C0.023,3.937 0.02,3.972 0.016,4.009 C0.012,4.03 0.012,4.054 0.008,4.077 C0.008,4.104 0.004,4.132 0.004,4.157 C0,4.21 0,4.263 0,4.315 L0,10.026 L0,25.971 L0,31.682 C0,33.569 1.543,35.112 3.43,35.112 L36.57,35.112 C38.457,35.112 40,33.569 40,31.682 L40,28 C36.055,28 32.859,24.803 32.859,20.857 C32.859,16.911 36.054,13.714 40,13.714 L40,10.025 C40,8.142 38.457,6.599 36.57,6.599 Z" id="XMLID_77_" fill="#FFFFFF"></path>
                <path d="M32.859,20.858 C32.859,24.803 36.054,28.001 40,28.001 L40,27.819 L40,24.962 L40,16.573 L40,13.716 C36.055,13.716 32.859,16.913 32.859,20.858 Z" id="XMLID_76_" fill="#FFFFFF" opacity="0.754528986"></path>
            </g>
        </g>
    </g>
</svg>