<?xml version="1.0" encoding="utf-8"?>
<!-- Generator: Adobe Illustrator 22.1.0, SVG Export Plug-In . SVG Version: 6.00 Build 0)  -->
<svg version="1.1" id="Layer_1" xmlns="http://www.w3.org/2000/svg" xmlns:xlink="http://www.w3.org/1999/xlink" x="0px" y="0px"
	 viewBox="0 0 40 36" style="enable-background:new 0 0 40 36;" xml:space="preserve">
<style type="text/css">
	.st0{opacity:0.75;}
	.st1{fill:#8997A5;}
	.st2{fill:#5C4D94;}
	.st3{fill:#D3CCFF;}
</style>
<g id="XMLID_75_" class="st0">
	<path id="XMLID_81_" class="st1" d="M0,3.9c0,0,0-0.1,0-0.1C0,3.8,0,3.8,0,3.9z"/>
	<path id="XMLID_80_" class="st2" d="M3.4,6.6h30.9V4.3c0-1.9-1.5-3.4-3.4-3.4H3.4c-1.7,0-3.1,1.2-3.4,2.9C0.3,5.4,1.7,6.6,3.4,6.6z
		"/>
	<path id="XMLID_79_" class="st1" d="M0,4c0,0,0-0.1,0-0.1C0,3.9,0,4,0,4z"/>
	<path id="XMLID_78_" class="st1" d="M0,4.2C0,4.1,0,4.1,0,4.2C0,4.1,0,4.1,0,4.2z"/>
	<path id="XMLID_77_" class="st3" d="M36.6,6.6h-2.3h0H3.4c-1.7,0-3.1-1.2-3.4-2.9l0,0v0c0,0,0,0.1,0,0.1c0,0,0,0,0,0C0,3.9,0,4,0,4
		c0,0,0,0,0,0.1c0,0,0,0.1,0,0.1c0,0.1,0,0.1,0,0.2V10V26v5.7c0,1.9,1.5,3.4,3.4,3.4h33.1c1.9,0,3.4-1.5,3.4-3.4V28
		c-3.9,0-7.1-3.2-7.1-7.1s3.2-7.1,7.1-7.1V10C40,8.1,38.5,6.6,36.6,6.6z"/>
	<path id="XMLID_76_" class="st2" d="M32.9,20.9c0,3.9,3.2,7.1,7.1,7.1v-0.2V25v-8.4v-2.9C36.1,13.7,32.9,16.9,32.9,20.9z"/>
</g>
</svg>
