<svg 
 xmlns="http://www.w3.org/2000/svg"
 xmlns:xlink="http://www.w3.org/1999/xlink"
 viewBox="0 0 41 41">
<defs>
<linearGradient id="PSgrad_0" x1="0%" x2="58.779%" y1="80.902%" y2="0%">
  <stop offset="0%" stop-color="rgb(132,49,207)" stop-opacity="1" />
  <stop offset="100%" stop-color="rgb(170,97,235)" stop-opacity="1" />
</linearGradient>

</defs>
<path fill-rule="evenodd"  fill="rgb(136, 57, 209)"
 d="M39.651,17.355 L37.718,17.355 L37.718,9.616 C37.718,8.838 37.134,8.242 36.369,8.242 L33.133,8.242 L33.133,1.374 C33.133,0.595 32.548,-0.000 31.784,-0.000 L5.395,-0.000 C2.427,-0.000 -0.000,2.473 -0.000,5.495 C-0.000,5.587 -0.000,5.724 -0.000,5.816 L-0.000,5.816 L-0.000,32.329 C-0.000,34.894 2.068,37.000 4.585,37.000 L36.414,37.000 C37.179,37.000 37.763,36.405 37.763,35.626 L37.763,27.613 L39.651,27.613 C40.416,27.613 41.000,27.017 41.000,26.239 L41.000,18.729 C41.000,17.950 40.416,17.355 39.651,17.355 ZM5.395,2.747 L30.435,2.747 L30.435,4.167 L5.440,4.167 C4.675,4.167 4.091,4.762 4.091,5.541 C4.091,6.319 4.675,6.915 5.440,6.915 L30.435,6.915 L30.435,8.242 L5.395,8.242 C3.866,8.242 2.697,7.052 2.697,5.495 C2.697,3.938 3.866,2.747 5.395,2.747 ZM35.066,34.252 L4.585,34.252 C3.506,34.252 2.697,33.428 2.697,32.329 L2.697,10.257 C3.506,10.715 4.405,10.990 5.395,10.990 L35.021,10.990 L35.021,17.355 L29.446,17.355 C28.682,17.355 28.098,17.950 28.098,18.729 L28.098,26.239 C28.098,27.017 28.682,27.613 29.446,27.613 L35.066,27.613 L35.066,34.252 ZM38.303,24.865 L30.795,24.865 L30.795,20.103 L38.303,20.103 L38.303,24.865 L38.303,24.865 Z"/>
<path fill="url(#PSgrad_0)"
 d="M39.651,17.355 L37.718,17.355 L37.718,9.616 C37.718,8.838 37.134,8.242 36.369,8.242 L33.133,8.242 L33.133,1.374 C33.133,0.595 32.548,-0.000 31.784,-0.000 L5.395,-0.000 C2.427,-0.000 -0.000,2.473 -0.000,5.495 C-0.000,5.587 -0.000,5.724 -0.000,5.816 L-0.000,5.816 L-0.000,32.329 C-0.000,34.894 2.068,37.000 4.585,37.000 L36.414,37.000 C37.179,37.000 37.763,36.405 37.763,35.626 L37.763,27.613 L39.651,27.613 C40.416,27.613 41.000,27.017 41.000,26.239 L41.000,18.729 C41.000,17.950 40.416,17.355 39.651,17.355 ZM5.395,2.747 L30.435,2.747 L30.435,4.167 L5.440,4.167 C4.675,4.167 4.091,4.762 4.091,5.541 C4.091,6.319 4.675,6.915 5.440,6.915 L30.435,6.915 L30.435,8.242 L5.395,8.242 C3.866,8.242 2.697,7.052 2.697,5.495 C2.697,3.938 3.866,2.747 5.395,2.747 ZM35.066,34.252 L4.585,34.252 C3.506,34.252 2.697,33.428 2.697,32.329 L2.697,10.257 C3.506,10.715 4.405,10.990 5.395,10.990 L35.021,10.990 L35.021,17.355 L29.446,17.355 C28.682,17.355 28.098,17.950 28.098,18.729 L28.098,26.239 C28.098,27.017 28.682,27.613 29.446,27.613 L35.066,27.613 L35.066,34.252 ZM38.303,24.865 L30.795,24.865 L30.795,20.103 L38.303,20.103 L38.303,24.865 L38.303,24.865 Z"/>
</svg>